<svg version="1.0" xmlns="http://www.w3.org/2000/svg" width="1706.667" height="1237.333" viewBox="0 0 1280 928"><path d="M716.3 4.1c1 7.3 7.2 11.9 16.1 11.9 4.7 0 5.7-.3 6.8-2.3.7-1.2 1.1-2.7 1-3.3-.1-.6.2-3.1.7-5.7l.8-4.7h-26l.6 4.1zm326 1.8c.3 3.3.8 6.4 1.2 7 .8 1.4 8.5 1.4 11.9.1 2.4-.9 2.6-1.4 2.6-7V0h-16.3l.6 5.9zM450 6c-2.5 2.5-2.5 4.1-.1 8.1l1.9 3.2 2.6-2.8c2.9-3.1 3.1-4.1 1.6-7.9-1.1-3.1-3.3-3.3-6-.6zm103.5-1c-.3.5-.1 2 .6 3.2.7 1.2 2.2 5.4 3.4 9.3l2.2 7-6.3.3c-5.5.2-6.4.6-6.4 2.2 0 3.6 1.2 5 4.2 5 2.6 0 2.9.3 2.6 2.7-.2 2-.9 2.9-2.6 3.1-1.2.2-3 1.5-3.9 2.8-1.4 2.2-2.1 2.4-5.7 1.9-2.3-.4-5.3-.2-6.8.4-2.4.9-2.8 1.6-2.8 5.1 0 3.6.7 4.7 5.6 9.7 3 3.1 6.4 7.3 7.4 9.2 3.2 6.3 11.4 15.5 15.5 17.6 3.3 1.6 6 2 14.9 2h10.8l4.3-4.7c7.6-8.5 8.9-12.2 9.5-28.9.4-12.1.8-14.8 2.3-16.3 1.3-1.3 1.7-3.4 1.7-8.6 0-6.7-.1-6.9-4.6-11.9-2.6-2.9-6-5.9-7.5-6.7-1.6-.8-2.9-2.2-2.9-3 0-1.7-2.6-1.6-10 .3-1.9.5-4.8.6-6.3.2-1.6-.4-4-.4-5.4.2-4.1 1.5-8.1 1.1-9.3-1.1-1.1-2.1-3.5-2.7-4.5-1zm550.7 19.2c-1.7 1.7-1.5 5.7.2 6.4 2.1.8 5.8-1.5 5.4-3.3-.5-2.5-4.2-4.5-5.6-3.1zM710 25.3c-3.4 1.7-4.8 7.8-2.6 11.2 1.4 2.2 2.4 2.5 7.1 2.5 6.3 0 8.5-1.6 8.5-6.4 0-4.7-3.3-8.6-7.3-8.6-1.8 0-4.3.6-5.7 1.3zm-350 5.3c-9.8 1.8-16 4.2-20 7.9-1.4 1.3-4.3 3.1-6.4 4.2-5.9 2.7-8 7.5-8.4 19.5-.5 12.4 1.3 28.5 3.6 31.6.9 1.3 2.6 3.8 3.7 5.6 4.2 6.6 7 9.7 12.4 13.5 12.6 8.7 29.7 9.3 47.1 1.6 4.1-1.9 8.3-3.6 9.3-3.9 1.1-.4 2.1-1.5 2.4-2.6.6-2.4.1-2.4 6 .1 5.3 2.3 9.3 5.5 9.3 7.6 0 .8 1.3 2.2 3 3.1 1.6.9 3 2.2 3 2.8 0 .7.7 1.4 1.5 1.8.8.3 1.5 1.5 1.5 2.6s.6 2 1.3 2c.7 0 3.3 2 5.7 4.5 2.5 2.5 6.9 5.9 9.8 7.6 4.9 2.8 5.3 3.2 4.7 5.7-.4 1.5-1.1 7-1.4 12.2l-.6 9.5-3.7.3c-5.1.4-6.2 2.1-4.7 7.2 2.1 6.9 7.2 9.2 9 4 1.5-4.2 2.9-2.8 2.9 3.1 0 4.2.3 4.9 1.9 4.9 2.5 0 3.2 1.1 2.4 3.8l-.5 2.2-2.4-2.4c-2.4-2.4-6.3-3.6-11.3-3.6-1.9 0-3 .8-4.1 3.3-1.1 2.3-2.3 3.3-4.2 3.5l-2.8.3 2.6 5.2c1.4 2.9 3.8 6.4 5.2 7.9l2.6 2.8h-2.8c-4.1 0-6 1.4-8.1 5.9-1 2.2-2.7 4.3-3.7 4.7-1.7.5-1.9 1.2-1.3 4.1.6 3.5.6 3.5-1.7 1.9-1.2-.9-3.1-1.6-4.2-1.6-1.8 0-1.8-.1-.3-1.3 2.5-1.8.9-3.2-5.5-4.6-3.2-.7-6-1.7-6.4-2.2-.3-.6-1.6-1.5-2.7-2-7.6-3.5-9-4.7-12.2-11l-3.3-6.4-8.7-.3c-7.1-.2-9.4.1-12.5 1.7-3.3 1.7-5.1 1.9-13.4 1.4-7-.4-10-.2-11.1.7-1.3 1.1-1.9 1-3.7-.6-4.3-3.8-6.8-7-9.4-12.2-1.5-2.8-3.3-5.2-4.1-5.2-.8 0-3-.7-4.8-1.6-2.8-1.3-3.5-2.5-5.4-8.7-1.1-4-2.4-9-2.9-11.2l-.8-4-6 .1c-3.9 0-7.7.8-11.3 2.4-7.1 3.1-8.5 6.4-7.6 16.9.8 9.9-.7 20.7-3.4 23.5-2.3 2.4-2.7 6-1.1 10.2.9 2.3.7 3.1-1.5 5.4-1.4 1.4-2.5 3.3-2.5 4.2 0 1.3-1.9 2.8-3.6 2.8-.2 0-.2-1.1.2-2.5.5-1.9.2-2.5-1-2.5-1.3 0-1.6-1.1-1.6-5 0-6.8-1.6-10-5.1-10-5.8 0-7.7 8.8-3.6 16.5 1.8 3.2 2.9 4.1 5.3 4.3 3.1.3 3.1.4 2.7 4.6-.4 2.7-.1 4.6.6 5.1 1.3.7 13.5-1.1 16.1-2.4.8-.5 2.7-3.7 4.2-7.2s3-6.4 3.4-6.4c.4 0 1.5 2.3 2.4 5.2.9 2.9 2.3 5.9 2.9 6.7 1.7 2.1.5 3.7-2.3 3-1.9-.4-2.5-.1-3 2.1-.8 3-.6 3.3 2.6 4.9 1.7.9 2.5 2.4 3 5.9 1.2 8.7 6.2 16.3 13 19.8 2 1 4.8 3.3 6.1 5.1 3.9 5.3 7.1 15.5 7.2 22.6 0 5.9-.1 6.2-1.6 4.4-.8-1.1-2.5-2.2-3.6-2.6-2.1-.7-5.3-6.9-5.3-10.4 0-.9-.5-3.4-1.1-5.5-1-3.5-1.3-3.8-3.7-3.2-1.5.4-3 1.2-3.4 1.8-.4.7-1.1.1-1.7-1.5-1.5-3.9-6.5-6.1-14.1-6.2-3.6-.1-6.8-.6-7.2-1.1-1.6-2.1-.8-7.7 1.3-9.4 1.6-1.3 2.1-2.9 2.2-7.1.2-4.8 0-5.5-1.8-5.8-1.2-.2-4.2.9-6.8 2.3-3.9 2.2-4.7 3.1-4.7 5.6 0 2.1-1.2 4.3-4.1 7.4-3.3 3.6-4.8 4.5-7.5 4.5-1.9 0-3.4.4-3.4 1 0 .5-.9 1-1.9 1-1.1 0-2.3-.5-2.6-1-.8-1.3-4.5-1.3-4.5 0 0 .6-2.2 2.6-4.8 4.5-2.7 1.9-5.4 4.6-6 5.9-.7 1.7-1.7 2.4-2.7 2-2-.8-4.5 1.3-4.5 3.9 0 1.1-1.1 4.4-2.5 7.4-1.8 3.8-3.1 5.3-4.5 5.3-2.4 0-2.6 2.2-.4 5.5 1.9 3 1.1 11.3-1.2 12.2-3 1.1-1.4 4 3.1 5.8 3.2 1.2 4.5 2.2 4.3 3.4-.1.9.5 3.3 1.5 5.4 1.7 3.5 2.1 3.8 4.8 3.2 2.8-.6 2.9-.6 2.9 3.4 0 3.4.3 4.1 1.9 4.1 1.1 0 2.3-.5 2.6-1 .4-.7 1.1-.7 1.8-.2.7.5 4.7 1.5 8.9 2.2 7 1.3 7.5 1.5 5.8 2.7-1.1.8-2 2.1-2 3 0 .9-.7 2.1-1.6 2.7-2 1.5-.8 4.6 1.9 4.6 1.1 0 3.1-1 4.4-2.2l2.3-2.1v6.2c0 5.3-.4 6.8-2.5 9.3-1.4 1.6-2.5 4.1-2.5 5.4 0 1.4-1.6 4.6-3.5 7.1-3.7 4.8-4.1 6.2-2.6 9.1.5.9 1.2 2.5 1.5 3.4 1.3 4.1 8.6.7 8.6-3.9 0-2.6 1-5.3 1.9-5.3 1 0 1.1 7.7.2 10.2-.7 1.8-1.7 2.2-6.3 2.4-6.3.2-10.5 2.4-11.4 6-.7 2.7-2.4 3.3-2.4.8S233.9 380 231.7 380c-.6 0-2.1 1.2-3.3 2.7-3.2 3.9-4.8 2.1-2.9-3.2.8-2.2 1.4-5.2 1.5-6.8 0-2.7 0-2.7-7-2.7-4 0-7 .4-7 1s-2.6 1-5.9 1h-5.9l-2.3 4.6c-1.7 3.7-2 5-1 6.3.6.9 1.6 2.6 2.3 3.8.6 1.3 1.7 2.3 2.3 2.3.6 0 3 2 5.3 4.4 4.7 5 7.5 6.3 10.6 4.8 1.1-.6 3.9-1.7 6.2-2.5l4.1-1.5 1.7 2.8c1.4 2.5 2.1 2.8 4.6 2.3 2.3-.4 3-.2 3 1 0 2.1 3.1 3.7 7.2 3.7h3.2l-2.1 2.1c-2.1 2.1-2.3 2.1-7 .6-4.7-1.6-4.8-1.6-6.8.7-1.1 1.3-2.6 3.2-3.3 4.2-1.1 1.6-1.2 1.2-.7-2.7.5-4.2.3-4.9-2.5-7.7-2.4-2.4-3-2.7-3-1.3 0 2.2-3.1 5.1-5.3 5.1-.9 0-3.2.7-5.1 1.7-4.5 2.1-6.8.6-5.7-3.5 1-3.4.4-5.2-1.8-5.2-2.7 0-4-2-3.4-5.1.5-2.8.4-2.9-3-2.9-2.6 0-4.3.7-6 2.6l-2.4 2.5.5-3c.6-4.1-3.1-8.9-9.2-12.2-2.8-1.4-4.6-3.1-4.6-4.1 0-1-.4-1.8-1-1.8-.5 0-1-.7-1-1.6 0-1.3.3-1.4 1.4-.5.8.7 3.2 1.1 5.3.9 3.7-.3 3.8-.4 3.6-4.2-.3-5.1-1.8-6.6-6.3-6.6-4.6 0-6.6 2-5.1 4.9 1.7 3.1 1.2 3.8-.9 1.2-1.6-1.8-2-3.8-2-9.7 0-4 .5-7.6 1-7.9 1.6-1 1.3-1.8-3.2-8.4-4-6-4.1-6.4-3.1-10.4 1-3.5.9-4.3-.3-5-.8-.5-1.2-1.2-.9-1.8.4-.5-.5-.9-1.8-.9-2.6 0-3.4-1.4-6-10.5-3.7-12.9-5.9-21.6-7.1-28.8-.9-5.6-2-8.5-3.7-10.3-1.3-1.4-2.9-4.8-3.5-7.6-1.1-4.6-1-5.1 1.1-7.2 3.2-3.2 2.2-6.9-3-12-5.6-5.6-10.9-12.5-10.1-13.4.4-.3 1-.1 1.4.5.7 1.2 8.7 4.3 11.1 4.3.8 0 1.1-.7.8-1.9-.3-1.2.4-2.8 1.9-4.2 3.2-3 3.3-8.4.2-11-2.5-2-6.8-2.5-6.8-.8 0 .6-1.1 2.4-2.5 4.1-1.4 1.6-2.5 3.9-2.5 5 0 1.5-.4 1.8-1.7 1.3-1-.4-4.7-1.9-8.3-3.2-16.5-6-17.4-6.6-21-13-1.8-3.2-4.9-7.8-6.9-10.3-2-2.5-4.5-6.2-5.5-8.3-1.9-3.6-14.3-16.3-15.2-15.4-1.3 1.3 1.4 7.3 5.5 12.1 4.9 5.8 15.6 25.9 16.7 31.2.5 2.5.2 3.5-1.5 4.6-2.9 2.1-4.2 6-3.1 10 .5 1.8 3.5 8.3 6.7 14.4 5.7 11 5.8 11.2 3.9 13.2-1 1.2-3 2.2-4.5 2.4-3.6.4-4.1 4.6-.8 8.2 1.3 1.4 2.9 2.6 3.6 2.6 1 0 3.1 3.8 4.5 8.2.3 1.1 1.5 1.8 2.9 1.8 2.5 0 5.7 2.8 5.7 4.8 0 .7-1.3 1.2-2.8 1.2-1.6 0-3.7.7-4.8 1.5-1.9 1.5-1.9 1.5.5 3.6 1.4 1.1 3.7 2.3 5.3 2.6 3.5.7 3.6 2.8.3 7.3-3.3 4.5-3.1 7.7.9 12.2 4.6 5.3 9.3 7 18.5 6.7l7.6-.2.2 6.7.2 6.8-4.2-.7c-2.3-.4-5.1-1.6-6.3-2.6-1.1-1-2.6-1.9-3.2-1.9-1.5 0-1.5 0-.1 3.8 1.2 3.6 7.9 7.2 13.4 7.2 10.4 0 14 12.2 5.8 19.7-3.9 3.6-3.9 5.9.2 10.3 4.7 5-.5 7.7-8.3 4.5-3.3-1.4-3.8-1.4-4.8 0s-1.4 1.4-2.6.1c-1.3-1.3-1.8-1.1-4 .9-1.4 1.3-4.1 2.8-6 3.3-3.1.9-3.9.6-7.6-2.2-2.3-1.7-4.8-4.6-5.7-6.4-.9-1.8-2.4-3.6-3.3-3.9-.9-.3-2.4-1.2-3.4-2-.9-.8-1.8-1.1-2.1-.6-.6 1.2.8 18.6 1.7 20.1.4.7 1.4 1.2 2.2 1.2.8 0 1.4.4 1.4 1 0 .5-.9 1-2 1s-2-.5-2-1c0-1.3-2.7-1.3-3.5 0-1 1.6 2.8 5.8 5.8 6.4 1.8.4 2.7 1.2 2.7 2.5 0 1.1.6 2.1 1.3 2.4.7.3.5.7-.8 1.2-3.3 1.1-4.9 2.1-5.2 3.2-.7 1.9 3 2.3 7.7 1 4.8-1.4 15-1.1 15 .4 0 .5-.4.9-.8.9-.5 0-.8 1-.7 2.2.1 1.4 1.5 3.2 3.8 4.7 2 1.3 3.7 3 3.7 3.8 0 1.7 1.4 1.7 2.9-.1s9.2-1.7 11.4.2c1.4 1.2 2.2 1.3 4.3.4 1.3-.7 3.7-1.2 5.1-1.2 2.3 0 2.5.3 1.9 3.2-.9 4.5 1.2 8.4 5.6 10.4 2.1.9 4 2.4 4.3 3.3.3.9 2.1 2.6 4 3.9 3.3 2.1 3.5 2.5 3.5 7.7 0 3.9.4 5.6 1.6 6.3 1.1.6 1.3 1.1.5 1.6-.6.4-1.1 1.2-1.1 1.8 0 .7 2.2.9 6.9.4 4.8-.4 7.2-.2 7.7.5.4.7 2.7 1 6.3.6l5.6-.5v4.5c0 5.1 2.8 8.3 7.4 8.3 2 0 3.1.9 4.8 3.9 1.3 2.2 2 4.7 1.7 5.5-.8 2 0 2 2.9.1 3.1-2 6.7-.9 6.7 2.1 0 1.2.5 2.6 1 2.9 1.9 1.2 1 3.5-1.6 4.5-2.2.9-2.4 1.3-1.3 2.6.6.8 1.7 1.3 2.4 1 .6-.2 1.7.5 2.3 1.5.7 1 1.9 1.9 2.7 1.9.9 0 2.2 1.5 3.1 3.3 1.3 2.6 2.5 3.6 6 4.5 2.4.7 5.3 1.2 6.3 1.2 2.7 0 7.1-5.6 7.1-9.1 0-2.3-.6-3.1-3.5-4.3-3.7-1.6-4.5-3-2-4 2.3-.9 1.8-2.5-1.5-4.4-5-2.8-3.4-3.4 2-.7 2.7 1.4 6.5 2.5 8.5 2.5 2.8 0 4.3.8 6.8 3.5 3.1 3.3 3.3 3.4 7.1 2.2 2.7-.8 4.8-2.5 7-5.6 1.7-2.4 4.7-5.9 6.6-7.8l3.5-3.4 1 3.2c.6 1.7 1.9 3.7 2.8 4.4.9.7 1.7 2.2 1.7 3.4 0 1.2 1.1 3.3 2.5 4.7 2.5 2.4 3.1 4.5 1.9 5.7-1.2 1.2-6.1-2.2-7.4-5.2-1.7-4.2-3.8-4.7-7.1-1.4-5.9 5.8-6.9 6.5-7.5 4.9-.8-2.1-3.1-.9-3.8 1.9-.4 1.4-1.8 2.7-3.6 3.3-1.6.6-3 1.7-3 2.5 0 1.6-4.1 1.7-9 .3-2.1-.5-2.8-.1-4.5 2.4-1.1 1.7-3 3.3-4.3 3.6-2.8.8-3.7 4.3-2.6 10.2.9 4.5 1 4.6 5.9 5.9 2.8.7 7.1 1.3 9.7 1.3 6.8 0 9.5 1.3 10.3 4.9.6 2.7 1.2 3.2 4.6 3.7 2.1.4 3.9 1 3.9 1.5 0 .4.8 1.6 1.9 2.6 1 1 2.2 3.2 2.5 5 .9 4 4.8 5.3 7.8 2.6 1.9-1.7 2-3.6.3-9.1-.6-1.9-.4-2.2 1.9-2.2 3.9 0 6.1-1.5 7.6-5 .7-1.7 1.1-3.2.9-3.3-.2-.1-1.7-.9-3.3-1.7-1.6-.8-3.1-2.1-3.4-2.8-.6-1.8 7.2-1.6 8.8.3.7.8 1.8 1.5 2.5 1.5.6 0 1.7 1.1 2.3 2.5.6 1.4 1.8 2.5 2.7 2.5.8 0 1.5.6 1.5 1.2-.1 1.6-10.7 9.8-12.7 9.8-.9 0-.3 1.4 1.8 4 3.1 3.8 3.2 4.1 1.9 7.9-1.6 4.8-.8 6.1 3.6 6.1 1.9 0 3.4.4 3.4.9s.3 1.6.6 2.5c.5 1.3-.3 1.6-4.9 1.6-8.1 0-15.9-2-15.5-3.9.2-.9 1.8-1.8 3.8-2.1 10-1.7 7-5.9-4.2-6-1.6 0-3.3.9-4.5 2.4-1.7 2.2-2.2 2.3-7.3 1.6-3-.5-7.5-.9-9.9-.9-3.9-.1-4.3.1-3.8 1.9.5 1.9 0 2-10.8 2-10.9 0-11.3.1-12.9 2.5-.9 1.3-1.6 3.4-1.6 4.5s-.7 2.3-1.5 2.6c-2 .8-7.2-1.4-7.9-3.2-1.8-4.7-10.1 2.8-9 8.3.6 3.1-.1 2.8 14.7 5.9 2.6.6 7.7 5.5 7.7 7.5 0 .6 1 .9 2.3.7 2-.3 2.2-.9 2.5-7.6l.3-7.2h3.9c3.2 0 4.6.7 7.4 3.5 2.5 2.4 4.8 3.7 7.8 4.1 3.1.5 5.4 1.8 8.1 4.4 3.2 3.3 3.7 4.4 3.7 8.3 0 6.9-.5 7.6-4.7 6.6-2.2-.4-4.6-2-5.9-3.7-3.3-4.1-10.2-6.6-15.1-5.3-2.1.5-4.9.9-6.3.8-2-.2-2.9.7-5 4.7-1.4 2.7-3 5.1-3.6 5.3-.6.2-1.6-2.2-2.3-5.4-.7-3.2-2.1-7.7-3.2-10.1-2-4.6-3.4-4.9-8.5-1.7-1.9 1.2-2.4 1-5.8-3-2-2.4-3.6-5-3.6-5.8 0-.8-1.1-2.2-2.3-3-1.4-.9-2.9-3.4-3.7-6.1-.9-3.3-2.4-5.5-5.1-7.7-6-4.8-4.9-8.5 2.6-9.1 3.5-.3 4 0 4.3 2 .2 1.5 1.5 2.8 3.5 3.7 3 1.3 3.4 1.2 5.8-1.1 1.4-1.3 2.8-2.4 3.2-2.4.5 0 1.7-.9 2.8-1.9 3-2.8 2.3-8.5-1.1-8.9-3.6-.5-5.5-3.2-5.5-7.6 0-3.5-.3-4-3-4.8-1.6-.4-6.4-.9-10.5-1.1l-7.5-.2-.3 3.7c-.2 2.1-.7 3.8-1.3 3.8-1.2 0-1.2 4.7.1 5.5.6.3 1 1.5 1 2.6 0 4.2-6.8 1.1-11.3-5.2-2.8-3.8-6.1-5.1-7-2.7-.2.7.5 3.9 1.6 7 1.2 3.2 1.8 6 1.4 6.4-.3.4-2.3.7-4.4.8-2.8.1-3.9-.4-4.7-2-1.6-3.1-11.4-11.4-13.5-11.4-1 0-3 .9-4.5 2.1-2.2 1.7-2.6 2.9-2.6 6.8 0 6.8 2 8.4 9.3 7.5 5.4-.6 5.6-.6 5 1.5-.3 1.2-1.4 2.6-2.4 3.2-4.6 2.4.7 12.8 7 13.7 3.2.4 6.9 3 7.6 5.3.4 1.1 1.6 1.9 2.8 1.9 1.2 0 3.2.3 4.4.6 1.8.5 2.5.1 3.3-2 .6-1.6 2.4-3.3 4.4-4.1 1.8-.8 3.6-2.1 4-3 .5-1.4.8-1.4 3.6 0 3 1.6 5.2 4.9 6.3 9.6.4 1.4 2.2 4.2 4.2 6.2 1.9 2 3.5 4.2 3.5 5 0 .8.7 2 1.5 2.7 1.9 1.6 1.9 4 0 4-2 0-3.8 3.7-3.3 7.1.5 3.4.4 3.5-4.7.9-2.2-1.1-5-2-6.3-2-2.2 0-2.4.3-1.8 3.2.4 1.8.7 5.2.6 7.5 0 2.3.4 4.4.9 4.7.5.4 3-.4 5.5-1.6 2.5-1.2 4.8-1.9 5.2-1.5 1.2 1.2-.6 5.5-3.6 8.7-3.8 4-3.9 6-.2 6 1.5.1 5.6 1.1 9.2 2.4 5.3 1.8 6.6 2.7 6.8 4.7.2 1.3.8 3 1.4 3.6.7.9.3 1.5-1.7 2.3-3.4 1.3-5.2 1.3-5.7 0-.2-.6-2.3-1.8-4.7-2.6-4.3-1.5-4.5-1.4-6.8.9l-2.4 2.4 2.1 3.6c1.9 3.2 2.5 3.5 5.1 3 2.6-.5 2.9-.3 2.9 2 0 2.9.5 3.3 7.1 6.2 5.3 2.3 11.5 7.4 13.4 11.2 1.3 2.5 1.2 2.7-2.3 4.4-3.2 1.6-3.7 2.4-3.8 5.4 0 2.9.3 3.5 1.9 3.5 1.1 0 2.8-.7 3.7-1.5 1.3-1.2 2.3-1.3 4.8-.4 3.9 1.3 4.1 2.5.5 3.4-4.3 1-7.3 3.3-7.3 5.6 0 2.4 4.3 11.2 7.7 15.7l2.4 3.3-2.8 3.3c-1.5 1.8-4 3.6-5.5 3.9-1.9.4-2.8 1.3-2.8 2.6 0 2.5 2.1 4.1 6.4 4.8 3.2.5 3.6.3 4.2-2.1.3-1.5 2.1-3.9 3.9-5.4 1.8-1.5 3.7-3.7 4.4-4.9 1.4-2.8 3.6-4 8-4.4l3.4-.4 1.3 6c.7 3.3 1.3 6.3 1.3 6.7.2 1.5-6.4-.5-8-2.4-1.1-1.4-2.5-1.9-4.6-1.6l-3.2.3 2.1 4.7c1.7 4 2.6 4.9 5.3 5.4 1.9.3 4.6.3 6.2 0 2.2-.5 3.5 0 5.9 2.2 2.6 2.4 3.2 3.8 3.7 9.1.8 7.3-.8 19.4-3.1 23.3-1.5 2.5-1.4 2.9.1 4.6 2.5 2.7 2.1 3.2-2.2 3.2-2.4 0-4.8-.8-6.5-2.1-2.7-2.1-5.7-2.2-17.1-.6-5.8.8-5.7 2.9.2 5.8 3.6 1.7 7.3 2.5 14.3 2.9 5.2.4 10.9 1.3 12.5 2 1.7.8 6.6 1.6 11 1.9 6.2.5 8 .9 8 2.1 0 2.5-14.5 3.9-26.2 2.5-3.5-.4-6.3-.4-6.3.1 0 .4 1.2 4.5 2.7 9 2.8 8.8 5 10.7 9.3 8.4 2.5-1.3 7-.2 18 4.4 6.7 2.8 9.1 4.3 11.2 7.3 1.5 2.1 2.5 4.6 2.2 5.5-.8 2.6 2.6 3 11.7 1.3 4.6-.9 10.7-2 13.6-2.5 2.8-.4 5.7-1.1 6.3-1.5.6-.4 2.3.3 3.6 1.6 2.1 2 3.9 2.4 10 2.7 8.6.5 9.9-.2 10.8-5.8.5-3.4 1-4 3.1-4.1 4-.2 4.3-.3 5.6-1.7 2-1.9 6.4-1.4 8.5.9 1.7 1.9 1.8 2.1.1 3-.9.6-1.7 1.9-1.7 2.9 0 1.4-.7 2-2.4 2-3.8 0-5 2.3-4.3 8.8.6 5.6.6 5.7-2.8 7.9-1.9 1.3-3.9 2.3-4.5 2.3-2.1 0-.9 5 1.7 7.5 2.2 2 3.6 2.5 6.7 2.3 5.5-.4 7.6-3.5 7.9-11.8.1-3.6.7-6.8 1.2-7.2 1.2-.9 7.7-1 10-.2 2.5 1 4.5 5.8 4.5 10.8 0 5.7 1.9 7.6 7.4 7.6 6.4 0 7.4-1.3 7.9-10 .2-4.1 1.4-10.7 2.7-14.5 3.8-11.8 3.7-15-.4-23-4.3-8.3-4.4-10.8-1.1-13.7 2.9-2.5 3.2-4.3.8-5.7-1.6-1-1.6-1.3 1-3.6 3.6-3.2 4.7-3.2 4.7.4 0 3.8 3.3 11.1 6.4 14 2.3 2.1 3.1 2.3 8 1.7 7-.8 10.5-2.1 11.3-4.3.4-1 1.7-3.2 3-4.9 1.3-1.7 2.3-4 2.3-5.1 0-1 1.2-3.1 2.8-4.6 2.7-2.6 2.8-2.6 4-.6.9 1.3 1.9 1.8 3.2 1.4 1-.3 2.1-.1 2.5.5.3.5 1 1 1.6 1 1.2 0 1.2-11.7-.1-12.5-1.5-1-1.2-3.7 1-8 2.3-4.5 1.6-5.5-4.1-5.5-6.1 0-7.1 1.5-6.7 10.2l.3 7.5-2.7-.9c-2.2-.8-2.8-1.8-3.7-7-.6-3.3-1.5-6.6-2.1-7.3-.6-.7-1.3-4.1-1.7-7.7-.5-6.2-.5-6.4 2.2-7.6 2.9-1.3 4.4-.5 4.5 2.4 0 1.6 3.4 4.4 5.3 4.4 1.1 0 1.7-.8 1.7-2.5 0-1.4.4-2.5.9-2.5s1.2-1.2 1.6-2.7c.5-2.1.2-3.2-1.5-4.5-1.2-1-3-1.8-4-1.8-1.3 0-1.9-1.1-2.4-4.1-.8-4.8-3.6-10.7-6.2-13-1.1-.9-4.1-2-6.9-2.4-2.7-.5-4.2-1-3.2-1.2 1.3-.4 1.7-1.5 1.7-5.6 0-8 .6-9.4 4-8.9 2.1.3 3.4-.2 5.1-2.2 1.2-1.4 2.9-2.6 3.6-2.6.8 0 2.5-1.1 3.8-2.4 2.1-2.1 2.3-2.7 1.2-5-1.5-3.3-5.9-3.5-8.1-.4-.8 1.2-1.3 2.5-1 2.9.5.9-5.5 4.3-6.3 3.5-.5-.4-2.1-12.8-2.2-17.4-.1-.6-1.3-1.2-2.7-1.2-2.4 0-2.6.3-2 3 .5 2.6.3 3-1.7 3-1.5 0-3.1 1.3-4.9 4.4-3.2 5-3.8 13-1.4 18.7.9 2.2 1.2 4.8.7 7.4-.6 3.6-1.1 4.2-5.6 6.3-2.8 1.2-5.7 2.6-6.5 3.1-3 1.6-3.4 5.7-1.8 15.8.8 5.4 1.1 9.9.7 10.1-.5.2-.2 1.9.6 3.9 2.1 4.9 2 16.2 0 17-.9.3-2.4-.2-3.4-1.1-1-.9-2.3-1.6-2.9-1.6-.7 0-1.2-.5-1.2-1 0-.6 1.4-1 3.1-1 2.6 0 3-.3 2.7-2.2-.3-2.5-3.1-3.5-9.5-3.7-3.1-.1-4.3.3-4.3 1.3 0 3 1.3 4.6 3.6 4.6 1.3 0 2.4.3 2.4.7-.1 1.3-7.2 6.3-9 6.3-1 0-3.8 1.9-6.3 4.3-2.4 2.3-5.6 5-7.1 6-1.4 1-3.6 3.9-4.9 6.5-3.7 7.8-10.4 10.4-22.4 8.8-4.8-.7-5.3-1-6.7-4.7-2.1-5.3-6-6.3-9.3-2.5-1.9 2.2-2.6 2.5-4.3 1.6-4.6-2.5-10.1-20.3-8.2-26.8 2.7-8.9 1.9-11.2-4-11.2-2.1-.1-2.1-.2-.6-1.4 1.6-1.2 1.6-1.6-.2-7.5-2.2-6.9-2.6-11.1-1-11.1.5 0 1.9-1.9 3.1-4.2 3-6 4.7-7.7 9-8.8 5-1.4 6.4-3.9 4.7-8.6-.9-2.6-2-3.7-3.9-4.1-2.3-.4-2.8-1.1-3.3-5.3-.5-4.1-1.1-5-3.6-6-1.7-.7-3-1.3-3-1.4 0 0 .7-2.3 1.5-5 1-3.4 2.7-5.9 5-7.9 5.3-4.3 4.6-8.6-1.7-10.1-3.6-.8-5.8 1.5-5.8 6.5 0 2.2-.5 3.9-1.1 3.9-2.2 0-3.8 3.5-3.9 7.9 0 3.1-.9 5.8-2.9 9-1.6 2.5-3.4 6.8-4 9.6-1.3 5.3-5.6 13.5-7.1 13.5s-2.1-1.8-.8-2.3c1-.3 1.1-.9.1-2.6-.7-1.1-1.3-3.8-1.3-5.8-.1-2.1-.7-6.4-1.4-9.6-.8-3.2-1.1-6.9-.7-8.4.5-1.8.2-3.7-.8-5.4-1.5-2.7-1.4-2.8 3.3-7.9 4.4-4.7 4.8-5.5 4.3-8.7-.4-2-1.3-4.3-2.2-5.3-.8-.9-1.5-2.9-1.5-4.3 0-1.5-.4-2.7-.9-2.7-1.2 0-4.1 2.9-4.1 4 0 .5-1.5 1.7-3.2 2.6-1.8.9-4.1 2.6-5 3.8-1.6 1.9-1.8 1.9-1.8.3 0-1-1.3-3-3-4.5-2-1.9-3-3.8-3.2-6.4-.2-4.2 1-6.1 5.3-7.8 2.6-1.1 3.1-1 4.3.5 2.8 3.9 7.8-.3 6-5.2-.9-2.6-1.4-2.8-5.5-2.6-3.8.2-4.6-.1-5.4-2-.6-1.2-3.7-3.5-7.2-5.2-12.9-6.3-13.3-9.3-2.3-14.5.8-.4 2.9-2.9 4.5-5.6 2.9-4.8 3.1-4.9 7-4.4l4 .5.6 6c.6 4.7 1.2 6.3 3.3 8 1.5 1.2 2.6 3.1 2.6 4.5.1 3.8 7.8 11.6 13.9 13.9 5 2 5.1 2 9.7.1 2.5-1.1 5.3-2 6.3-2 .9 0 2.7-1.4 4-3.1 1.9-2.6 2.5-2.8 3.8-1.7 1.3 1.1 2.2.6 5.7-3.5 4.6-5.3 7.2-6.2 6.2-2.2-.4 1.4-.2 2.5.4 2.5.5 0 1 .9 1 2 0 2.6 4.1 5.1 9.4 5.7 3.7.5 5 .1 8-2.2 2.4-1.8 4.2-2.5 5.6-2 1.4.4 2 .2 2-.8 0-.8.7-2 1.5-2.7 1.8-1.5 2-6.1.3-7.8-.7-.7-2.1-1.2-3.3-1.2-1.2 0-2.8-1.2-3.8-2.9-2.5-4.2-2.2-6.8.9-7.5 2.7-.7 2.8-2.3.1-4-1.2-.8-2.3-.7-3.8.3-2.2 1.3-2.2 1.3-1.5-5.3.4-4.5.3-6.6-.4-6.6-2.8 0-7.2 3.4-9.6 7.5-1.5 2.6-3.3 4.5-4.3 4.5-1.9 0-4.4 2.4-5.4 5.1-.3 1.1-2 1.8-4.6 2.1-3.4.3-4.1 0-4.1-1.4 0-.9-.4-2-1-2.3-1.2-.8-1.3-5.5-.1-7.4.7-1.1 1.1-1 1.9.4.5 1 1.4 1.5 2.1 1.1 1.2-.8 1.5-5.6.4-5.6-.5 0-1.3-1.1-1.9-2.5-.9-1.9-.9-2.8.2-4.2.7-1 1.4-2.6 1.4-3.6 0-2.3 1.3-2.1 4.8.8 1.9 1.6 4.2 2.5 6.5 2.5 3.1 0 3.6-.4 5.1-4 1.9-4.9 1.9-4.5 0-6.5-1.1-1.1-1.3-1.9-.6-2.8.5-.7 1.3-2.6 1.6-4.2 1.6-7.5-6-8.8-9.2-1.6-1.9 4.3-9.2 11.3-9.2 8.8 0-3.3 1.3-7.6 2.1-7.1.5.3.9-.1.9-.8 0-.7.5-3 1.1-5.1 1.1-4.1 5.6-7.7 9.6-7.7 2.5 0 5.3-3.5 5.3-6.5 0-1.2 1.1-3.1 2.3-4.4 2.2-1.9 2.5-2 3.7-.6 1 1.2 1.1 3.8.6 10.2-.5 7.3-.4 8.7 1 9.8 2.5 1.8 1 6.1-3.1 8.8-4.1 2.6-4.4 3.9-1 5.7 1.7.9 2.5 2.2 2.5 4.1v2.7l8.3-.5c6.9-.4 7.9-.2 6.6.9-3.3 2.7-4.2 5.7-2.5 8.3 1.8 2.7 5.1 14.7 6.1 21.7.3 2.7 1.2 4.9 2.1 5.2.8.3 1.3 1 .9 1.6-.7 1.1 3.9 2.5 5.5 1.5.5-.3.9-1.9.8-3.3-.3-4.2 1.1-5.8 2.9-3.3.8 1.2 2.4 2.1 3.6 2.1 1.2 0 2.8.4 3.4.8 1.9 1.2-.2 7.4-4.2 12.2-3.4 4.1-3.7 6-1 6 .7 0 1.5 1.2 1.7 2.7.2 2.2.9 2.9 3.1 3.1l2.7.3-.2-5.9c-.2-3.3.1-6.4.5-6.8.4-.4 5.4.8 11.1 2.7l10.4 3.4 1.9 7c1.7 6.5 2 7 4.7 7.3 1.6.2 4.1-.2 5.4-1 2-1 2.6-1 2.9-.1.3.7 1 1.3 1.7 1.3s3 1.1 5 2.5c6.6 4.5 11.5 2.4 11.7-5.1l.2-3.9.7 4.5c.4 2.5 1.2 5.6 1.7 7 .6 1.4 1.4 6.8 1.8 12 .4 5.2 1.1 10.1 1.5 11 .5.8 1.3 4.6 1.9 8.5.8 5.7 1.5 7.4 3.7 9.1l2.6 2.1-2.7.7c-2.4.6-2.6 1-2.3 4.9.3 4.2.3 4.2 3.8 3.9 1.9-.2 3.8-.8 4.1-1.4.4-.6 2-.7 3.8-.3 3.1.7 3.2.8 1.5 2.6-2.4 2.6-1.1 4.7 3.2 5.1l3.7.3 4.8 15.5c2.7 8.5 4.8 16.5 4.9 17.7 0 1.7.6 2.3 2.1 2.3 2 0 2.1-.4 1.5-5-.6-4.5-.5-5 1.3-5 1.1 0 2.8 1.1 3.8 2.5 4.9 7.1 4.4 6.8 9.5 5.5 2.8-.7 4.9-1.9 5.2-2.9 1.3-4.5 1.7-8.2 1.1-9.9-.5-1.7-1.1-1.8-5.2-1.1-2.5.5-4.9.7-5.1.4-.3-.3.2-2.1 1.1-3.9 1.4-3.1 2-3.4 6.9-3.8 2.9-.2 6-.8 6.9-1.2 1.2-.5 2.3.4 4.2 3.7 1.5 2.5 4.7 6.4 7.2 8.8 2.6 2.4 5.5 5.7 6.5 7.4 1 1.6 3.6 3.9 5.7 5s4.1 2.4 4.6 3c.5.6 1.2.4 2-.7.9-1.1 2.1-1.5 3.7-1.1 2.3.6 2.3.5 1.6-5.6-.4-3.5-1.1-7.3-1.6-8.6-.7-1.8-.5-2.4.9-2.8 1.1-.2 2.3-2.2 3.1-5.1 1.1-3.9 1.1-5.4-.1-8.9-1.8-5.5-11.1-15.1-16.3-16.7l-3.9-1.3-4.3 4.9c-2.4 2.7-4.8 6.4-5.5 8.3-1 2.8-1.3 3.1-2.1 1.7-1-1.8-7.3-2.3-8.3-.6-.3.6-1.3 1-2.2 1-1.4 0-1.4-.3.1-2.5 2-3.1 2-5.9 0-8-1.5-1.5-1.5-1.8.6-4 1.7-1.8 2.1-3 1.5-5.2-.7-3.1-3.2-6.3-4.9-6.3-.6 0-1.7-.9-2.4-2s-1.9-2-2.7-2c-1.7 0-1.9-.9-.6-2.9.8-1.2 1.3-1.1 2.9.9 1.7 2.1 2.3 2.3 5.3 1.4 2.6-.7 3.5-1.6 3.9-4 .4-1.6.3-3.9-.1-5-.4-1-.8-4.3-.8-7.2-.1-2.8-.3-5.2-.6-5.2-2 0-5.6 2.8-6.4 4.9-.5 1.4-1 1.9-1 1-.2-2.7-5-11.1-7.6-13.1-3.2-2.5-3.2-6.1 0-8.2 2.2-1.4 2.5-2.4 2.5-7.5 0-9.1-1.7-10.6-12-10.6-7 0-8.3.3-9.8 2.1-.9 1.2-2.5 2.4-3.4 2.7-1.2.4-1.8 1.7-1.8 4 0 5.2-1.7 6.6-7 5.7-2.5-.4-3.6-.8-2.5-.9 1.8-.1 1.8-.2.3-1.8-1.6-1.5-1.6-1.7.5-2.8 1.4-.6 2.2-2 2.2-3.5 0-2.2-.4-2.5-3.5-2.4-1.9 0-4.6.3-6 .5-2.8.4-2.7.6-1.2-8.9 1.2-6.8 3.4-9.2 8.4-9.2 3.4 0 3.9-.2 3.3-2-.9-2.7 2.1-8 4.5-8 1.1 0 3.3-1.4 5.1-3.1 1.7-1.7 3.3-2.8 3.6-2.5.3.3-.4 2.4-1.6 4.8-1.2 2.5-1.7 4.4-1.1 4.6.6.2.8.8.4 1.3-.3.5.8 1.7 2.5 2.7 1.7.9 3.1 2.4 3.1 3.3 0 1.5 2.6 2.8 5.4 2.9.5 0 .6-1.9.2-4.3-.6-3.4-.5-4 .5-3 .7.7 2.9 1.3 4.9 1.3 3.2 0 4 .5 6.3 4.1 1.5 2.2 2.7 4.5 2.7 5 0 1.8 1.6.9 5.4-3 3.1-3.2 3.6-4.2 3-6.7-.4-1.6-1.4-3.8-2.4-4.9-1.8-2-3.3-6.1-4.8-12.5-.8-3.3-1.1-3.5-5.4-3.8-2.6-.2-7.1.3-10.1 1.1-4 1.1-5.8 1.2-6.6.4-1.5-1.5-1.4-2.7.4-2.7 2.3 0 1.8-4.1-.6-4.7-2.5-.7-2.3-4.6.3-5.1 1.2-.2 2 .8 2.8 3.8l1.1 4.2 4.7-.6c3.4-.5 5.5-1.5 7.4-3.6 1.9-2 3.6-2.8 5.7-2.8 4.1.1 6.8-2.5 7.6-7.2.7-4.2 2.9-7.9 4.1-6.8.4.4.1 1.4-.5 2.2-.9 1.1-1 2-.1 3.5 1.3 2.5 2.7 2.6 5.2.4 2.9-2.6 2.9-1.2.2 4.7-1.4 3-2.4 6.5-2.2 7.8.4 3.5-3.3 4.8-5.8 2.1-1.8-2-6.8-2.6-7.9-1-.7 1.2 3.3 5.1 5.2 5.1.7 0 2.5 1.8 4 4.1 2.2 3.4 3.1 4 5.7 3.7 2.4-.2 3.5-1.1 4.8-3.7 1.1-2.2 3.1-4 5.8-5.2 2.3-1 4.9-2.8 5.9-4 2.3-2.9 6-2 8.3 2.1 1.6 2.8 2.1 3 7.3 3 3.3 0 5.5-.4 5.5-1.1 0-.6.9-2.2 2-3.6 1.2-1.6 2-4.1 2-6.4 0-2 .3-4.4.6-5.2.7-1.9 4.3-1 6.6 1.7 1.7 2 1.7 1.9 1.8-4 0-4.3-.5-6.5-1.5-7.4-.8-.7-1.5-1.6-1.5-2 0-.5-1.2-2.2-2.7-3.8-6.9-7.2-9.1-10.3-8.6-12.2.4-1.5 0-2-1.5-2-2.2 0-4.2-2.6-4.2-5.4 0-.8 1.1-2.8 2.5-4.4 1.6-1.9 2.1-3.2 1.4-3.9-.6-.6-.2-1.6 1.1-2.8 3.1-2.8 2.6-5.2-1.2-6-1.8-.4-4.1-1.4-5-2.2-2.4-2.1-3.8-.8-3.8 3.8 0 3.2-.3 3.9-2 3.9-1.1 0-2 .7-2 1.5 0 1.8-2 1.9-5.4.3-1.7-.7-2.8-2.2-3.2-4.5-.4-1.9-1.8-4.3-3.4-5.6-2.3-1.8-2.6-2.6-1.9-4.5.9-2.4 3.5-3 4.2-1 .3 1 .9 1 2.8.2 13-6.2 15-6.7 23.5-6 8.8.6 11.4.2 11.4-2 0-1.1 1.7-1.4 7.3-1.4 6.6 0 7.5.2 8.6 2.3.9 1.7.9 3 .2 5.1-1.4 3.5-1.4 8.3-.1 9.1 1.5.9 1.2 12.8-.5 16.8-1.5 3.6-1.1 6.5.9 7.9.6.4-1 .8-3.6.8s-5-.4-5.3-1c-.7-1.1-8.4-1.4-10.9-.4-.9.3-1.6 1.1-1.6 1.8 0 1.6 7.8 5.3 12.9 6 2.4.4 4.8.9 5.3 1.2 1.2.8-5.1 5.4-7.3 5.4-3.7 0-4.2 2.6-2 9.7 1.1 3.8 3 8.4 4.2 10.3 2 3.2 2.2 3.3 3.5 1.6 1.3-1.8 1.4-1.7 2.4 1 .5 1.6 1.4 3.6 1.9 4.4 2.3 4.1-5.2 15.9-12.2 19.4-2.9 1.3-3.3 1.3-6.2-1-4-3-6.9-3.1-8.9-.2-2 2.8-2.1 9.2-.1 10.8 1.1.9 2.5.7 6.8-1.3 5.2-2.4 5.5-2.4 7-.7 1.3 1.6 1.3 2.1.2 3.7-2 2.6-1.8 4.3.5 4.3 1.7 0 1.9.4 1.4 2.5-.9 3.5 1.1 7.6 4.6 10 1.7 1.1 3 2.6 3 3.3 0 .8 1 .5 2.9-.9 2.7-2 3.4-2.1 9.5-1l6.5 1.1 7-7.2c4.5-4.6 7.9-9.2 9.3-12.6 1.5-3.5 2.7-5.2 4-5.2 1 0 1.8-.7 1.8-1.6 0-2.5-1.9-5.4-3.7-5.4-1.3 0-1.3-.3-.2-1.6 1.8-2.1 6.4-4.4 9-4.4 3.9 0 8.7 2.3 9.8 4.6 1.5 3.3 4.9 4 7.4 1.6 1.9-2 2-2.3.5-6.1-1.4-3.5-1.4-4-.1-4.5 2.7-1.1 4.6-.6 7.8 1.8 3.1 2.4 7.8 2.6 9.1.5.3-.5 2-.9 3.8-.9 3.8 0 5.6-1.5 5.6-4.6 0-3.3 2.3-5 7.4-5.7 6.4-.9 9.6.5 9.6 4.1 0 3.1-1.6 5.2-4 5.2-3.9 0-6.8 7.8-4 10.6 1.9 1.9 0 4.2-5.1 6.3-5.2 2.3-5.8 3.7-3.6 8.4 2.2 4.8 10.8 4.4 15.6-.7 2.4-2.5 3.2-8.3 1.8-12.2-.6-1.7-.1-2.3 2.8-3.7 5.2-2.5 7.9-2.1 10.9 1.4 1.4 1.7 2.6 3.7 2.6 4.5 0 1.9 4.5 3.6 7.4 2.8 2.8-.7 11.6-10.9 11.6-13.4 0-1.1.5-2.2 1.1-2.6 2.1-1.3.3-13.2-2.6-17.4-2-2.9-2.8-5.9-4-15.6-1.7-13.9-1.8-16.7-.6-15.9 1.3.8 6.1-1.6 6.1-3 0-.7-.8-2.2-1.7-3.3-1.4-1.6-3.3-2.1-8.5-2.4-6.5-.4-6.7-.3-7 2.1-.4 3.1-5.5 6.7-11.4 8.2-4.8 1.2-6.3 2.6-9.4 8.7-1.3 2.4-3.9 5.4-5.9 6.8-3.1 2.1-4.7 2.4-12.3 2.4-7.4 0-9.1-.3-10.7-1.9-3.2-3.2-5.4-3.9-10.3-3.4-5.4.6-5.9 0-7.8-9.2-1.5-7.1-3.9-13.5-5.1-13.5-2 0-.6-3.8 3.6-10.4 5-7.7 5.5-11.1 2.8-18.6-3.2-8.8-1.7-17.5 3.9-23.7 1.1-1.2 1.8-2.9 1.5-3.7-.3-.8.1-2 .9-2.6.8-.7 1.4-1.8 1.4-2.5s2.3-3.6 5.2-6.3l5.2-5-4.5-1.2c-4.8-1.3-7.9-3.5-7.9-5.7s4.7-10.6 6.9-12.5c2.8-2.3 2.7-4-.2-3.6-1.3.1-3.8-.7-5.7-1.9-1.9-1.2-3.6-1.8-3.8-1.3-.2.6-1 1-1.7 1-.8 0-2.3 1.2-3.5 2.7-1.9 2.4-2.1 3.6-1.6 8.9.5 5.2.3 6.3-1.5 8.3-2.1 2.3-5.4 2.4-10.6.4-1.6-.6-1.5.7.3 6.9.5 1.8-1.5 4-7.4 8.6-2.1 1.5-4.4 2.2-7.5 2.2-2.5 0-4.9.4-5.2 1-.3.5-2.6 1-5.1 1-3.5 0-4.4-.3-4.4-1.8 0-.9-1.8-6.7-3.9-12.7-2.1-6.1-4.6-15.7-5.5-21.5-1.2-7-2.7-12.5-4.7-16.4-3.2-6.5-3.7-11-1.4-13.2.8-.9 1.5-2.4 1.5-3.5 0-3 5.7-14.3 8.6-17l2.6-2.4-.7 2.8c-.6 2.1-.3 3.1 1.1 4.2 2.6 2 6.1 1.8 7.3-.2.5-1 1.2-1.5 1.6-1.1.4.3-.3 1.6-1.4 2.7-1.5 1.5-3.4 2.1-6.5 2.1-6.9 0-7.6.6-7.6 6 0 5.8 2.4 8.4 7.5 8.3 1.9-.1 3.2.3 2.9.8-.3.5-.1.9.5.9.5 0 1.3.9 1.6 2 .3 1.1 1.5 2 2.6 2 1.5 0 1.9-.7 1.9-3.3 0-2.2 1.1-4.4 3.3-7.1l3.3-3.8 4.9 3c7.2 4.4 11 4.8 19 2.1 3.7-1.2 6.9-2.8 7.2-3.6.3-.7 1.5-1.3 2.7-1.3 1.2 0 2.7-.5 3.4-1.2 1.5-1.5 1.6-6 .2-7.4-.6-.6-1.7-4.8-2.4-9.5l-1.4-8.4 3.4-3.8c4.1-4.4 4.3-7.3.9-11-3.5-3.7-8.2-3.7-12.4.2-1.7 1.6-3.1 3.6-3.1 4.5 0 .9-.5 1.6-1 1.6-1.1 0-10.6-3.8-16.9-6.8-3.1-1.4-3.5-1.4-4.5 0-1.1 1.5-1.3 1.5-2.4-.3-1.1-1.7-2.4-1.9-11.7-1.9-11.6 0-11.9.2-9.5 6.6l1.1 2.7 8.4-.6c4.6-.3 9.4-1.1 10.6-1.7 2.7-1.5 3.2-.8 1.8 2.3-1.5 3.2-7.9 6-12.2 5.2-1.8-.3-5.3-.2-7.9.3-3.9.8-4.8.6-6.2-.9-2-2.4-6.4-2.4-9.2-.1-1.8 1.5-2 2.6-1.6 7.4.5 7-.9 8.3-4.9 4-3.4-3.6-3.6-4.6-.9-3.7 1.6.5 2 .2 2-1.7 0-3.6-6.8-6.2-14-5.4-5.2.6-5.7.5-8.1-2.1-1.4-1.6-3.4-4.7-4.4-7-1-2.4-2.6-4.5-3.6-4.8-.9-.3-2.3-1.3-3-2.1-1.1-1.3-1-1.8.4-2.5 2.6-1.5 2-2.9-1.1-2.9-2.2 0-2.9-.6-3.8-3.5-1-3.2-.9-3.5 1-3.5 1.2 0 2.9 1.3 4.1 3.1 1.6 2.5 2.5 2.9 4.8 2.5 2.3-.5 3.1 0 5.2 3.5 1.4 2.2 3 5.1 3.5 6.5.9 2.2 1.2 2.3 3.1 1.3 1.2-.6 4.2-.9 6.6-.6l4.5.5-.5-3.7c-.3-2-.9-5-1.2-6.8-.6-2.4-.2-3.6 1.4-5.2 1.2-1.2 2.8-2.1 3.7-2.1 1.8 0 1.6 3.2-.7 8.8-2.1 5.1-.5 6.6 7.3 7 5.8.3 6.9 0 9.7-2.3 1.7-1.5 3.1-3.2 3.1-3.8 0-.6 1.2-2.1 2.7-3.3 2.8-2.2 2.7-5.9-.2-4.8-2 .8-1.9.1.5-4.7 1.2-2.2 2.9-4.3 3.8-4.6 2.5-.9 3.2-2.3 3.2-6.5 0-6.5-4.1-8.8-16-8.8-9.8 0-13.3 1.2-12.8 4.3.3 2.1.7 2.2 7 1.9 6.8-.4 10.8.3 10.8 1.8 0 .5-.9 1.2-2 1.5-1.1.4-2.7 2.2-3.5 4.1-.9 2.3-2.1 3.4-3.4 3.4-1.2 0-2.1-.5-2.1-1 0-.6-1.2-1-2.7-1-1.6 0-4.5-.3-6.5-.6-3.1-.5-3.8-1.1-3.8-3 0-1.4.8-2.5 1.9-2.9 2.3-.7 3.5-3.7 2.6-6.4-.5-1.5-1.7-2.1-5.3-2.3-3.8-.2-4.9-.8-5.7-2.6-1.2-2.6-3.6-2.8-7.5-.6-2.6 1.6-2.8 1.6-4.8-.4-1.1-1.1-2.7-2.4-3.7-2.9-1.6-.9-1.6-1.3.3-5 2.2-4.2 1.6-6.3-1.7-6.3-.9 0-2.7-.9-4.1-2-2.9-2.3-6-2.6-6-.6 0 .9-1.7 1.6-4.9 2.1-6.6.9-9.1-.7-9.1-5.8 0-3.3.4-3.9 3-4.8 1.9-.7 3-1.8 3-3 0-1.9 4.6-11.9 5.4-11.9.3 0 .1 1.3-.4 2.8-.4 1.6-1.1 5.8-1.5 9.3-.4 3.5-1.2 7-1.8 7.7-.5.7-.7 1.5-.4 1.8 1.2 1.2 5.5-.6 10.3-4.4 2.7-2.2 5.9-4.2 7.1-4.6 1.1-.4 2.7-1.4 3.4-2.3 1.2-1.3 1-1.8-.9-3.1-1.2-.8-2.2-2-2.2-2.7 0-1.7-3.3-4.5-5.3-4.5-.9 0-1.7-.5-1.7-1 0-.6.7-1 1.6-1 .9 0 1.4-.7 1.2-1.8-.2-1-1.1-1.6-2.1-1.4-1 .2-1.7-.3-1.7-1.2 0-1.1.9-1.3 3.8-.9s4.1 0 5.6-1.6c1.1-1.2 1.6-2.1 1.2-2.1-.3 0 .1-1.1.9-2.4.9-1.4 3-2.7 5-3 2-.4 4-1.7 5-3.2 1.6-2.5 1.6-2.7-.3-4.7-1-1.2-2.5-3.7-3.2-5.6-.9-2.2-2.5-3.8-4.6-4.7-3.9-1.7-10.7-1.8-13.5-.4-1.7 1-1.9.7-1.9-2.4 0-3.8-3.6-7.5-7.4-7.7-1.7 0-1.4-.4 1.2-1.7 3.1-1.5 3.3-1.9 2.8-5.2-.3-1.9 0-4.9.6-6.6 1-2.8.8-3.6-1.2-6.5-1.3-1.9-2.8-3.7-3.4-4.1-.6-.4-.5-1.2.4-2.2.7-.9 1.1-1.8.9-2-.2-.2-4 0-8.3.4-6.4.6-8.2 1.2-9.5 2.9-1.8 2.3-3.1 1.9-3.1-1 0-1-.7-2.2-1.6-2.7-2.6-1.4-.9-5.5 2-4.8 1.3.3 5.5.9 9.4 1.2 5.9.6 7.2.4 7.2-.7 0-2.3-5.7-7.9-8.2-8.1-7.2-.4-10.8 1-10.8 4.3 0 1.1-.7 1.9-1.5 1.9s-1.5.4-1.5 1c0 .5-1.1 1-2.5 1s-2.5-.4-2.5-.9-1.9-.9-4.3-.9c-5.7.1-9.7-2.5-9.7-6.3 0-1.6.8-3.4 1.8-4.1 1.1-.7 2.4-2.3 3.1-3.6 1.5-2.7 2.7-2.8 3.4-.2.4 1.8 1.1 1.9 5.4 1.4 6.3-.9 7.3-1.8 7.3-7 0-2.3.5-4.6 1-4.9.6-.3 1-1.3 1-2.1 0-.9 1-2.4 2.2-3.4 1.8-1.4 2.3-3 2.6-8.8.4-6.2.7-7.3 2.8-8.7 3.3-2.1 3.2-6.2-.2-7.5-1.4-.6-3.9-1-5.5-1s-2.9-.5-2.9-1.1c0-2.9-16.6-16.9-20-16.9-2.2 0-3.8-3.3-3.3-6.5 1.4-8.8-10.9-11.6-15.2-3.4l-1.3 2.4-1.5-3.5c-.9-1.9-2.4-5.8-3.4-8.5-2.2-5.6-6.2-8.9-12.9-10.6-3.2-.8-4.4-1.7-4.6-3.3-.3-1.9-.8-2.1-4.9-1.8-5.5.4-8.8-1.1-14.4-6.5-2.2-2.1-5.5-4.9-7.3-6.3-3.3-2.4-3.4-2.8-4.2-12.5-1.1-11.9-6.8-33.1-10.4-38.5-1.6-2.5-4.4-4.7-7.9-6.5-4.8-2.3-6.9-2.7-17.8-3-6.8-.2-13.5-.2-14.9.1zm-36.3 160.1c.3 1 1.4 2.7 2.4 3.8 1 1.1 2.9 4.1 4.3 6.7l2.4 4.6-2.9.6c-2.1.4-2.9 1.1-2.9 2.7 0 1.5-.5 1.9-1.5 1.5-1-.3-1.7.3-2.1 1.9-.8 3.2-4 3.3-4.7.2-.5-1.8-1.1-20.4-.8-23 .2-1.5 5.2-.7 5.8 1zm151.6 8.2c4.9.1 4.5 2.2-.6 3.5-4 1-4.7 2.5-4.7 10.1 0 6.6.9 9.7 2.6 9.1.7-.3 1.6-.1 1.9.3.3.5-.2 1.2-1.1 1.5-1.5.6-1.4 3.8.3 10.1.4 1.4-.5 1-3.1-1.8-2.6-2.6-4.6-3.7-6.6-3.7-1.7 0-3-.5-3-1.2 0-.6-.9-.3-2 .7s-2 2.6-2 3.7c0 1.3-.7 1.8-2.7 1.8-1.6 0-4.3.9-6.2 2.1-3.5 2.1-3.5 2.3-1.5 10.3.5 2 .2 2.6-1 2.6-1 0-1.6-.9-1.6-2.5 0-1.4-.8-3.3-1.7-4.3-1-1.1-2.6-3.3-3.5-5.1-.9-1.7-2.9-3.6-4.3-4.1-3.8-1.4-3-2.3 1.5-1.5 2.8.5 4.6.2 6.2-.9 1.2-.9 3-1.6 4-1.6 1.1 0 1.8-.7 1.8-2 0-2.8 2.2-7.1 3.4-6.7.6.2 1.3 1.9 1.6 3.8.6 3.8 3.1 5 5.4 2.6 1.1-1 1.2-1.7.4-2.5-1.4-1.4.7-4.2 3.2-4.2 4 0 5-1.1 5-5.4 0-5.4-1.4-7.2-6.8-8.6-4.8-1.2-6-3-4.4-6.4 1-2.3 1.1-2.3 8.4-1 4 .7 9 1.3 11.1 1.3zm-102.8 18.7c2.2 2 3.2 3.3 2.2 3-1-.3-2.7-.6-3.8-.6-1 0-2.5-1.3-3.4-3-2.2-4.2-.1-3.9 5 .6zm4 18c2.8 3.1 3.6 3.4 5.3 2.5 2.9-1.5 5.2-1.4 3.1.2-2.7 2.1-3.2 5.6-1.4 10.2.9 2.4 1.5 5.2 1.3 6.2-.4 2.5 3.4 2.4 4.7-.2.5-1.1 1.7-1.9 2.6-1.7 1.5.3 1.5.7-.2 4-1.1 2-1.9 4.1-1.9 4.8 0 .6-1.3 2.8-2.9 4.8-1.6 2.1-3.1 4.2-3.3 4.8-.5 1.5-10.5 2.3-12.2.9-1.1-1-1-2.1 1-6.9 1.3-3.1 2.4-6.4 2.4-7.3 0-.8.5-2 1.1-2.6 1.8-1.8-.6-4.9-5.6-7.3-4.1-2-5.9-4-3.5-4 .6 0 1-.6 1-1.4 0-.7.7-1.9 1.5-2.6.8-.7 1.5-2.5 1.5-4 0-2.5.7-4 1.8-4 .2 0 1.9 1.6 3.7 3.6zm82.4 5.5c-2 1.3-2.7 1.1-3.8-.8-.7-1.2-.5-2 .7-2.9 1.3-1 1.9-.8 3.1.8 1.2 1.7 1.2 2.1 0 2.9zm20.7 18.2c-.3 1.4.3 2.8 1.9 4.3 1.4 1.3 2.5 3 2.5 3.8 0 1.3-.5 1.3-3.2-.3-2.9-1.5-3.3-2.3-3.6-6.4-.3-4-.1-4.6 1.3-4.1 1.1.5 1.5 1.4 1.1 2.7zm-8 1.4c-.3 2.1-.6 4.5-.6 5.4 0 .9-1.1 2.1-2.4 2.7-1.7.8-2.6 2.1-2.8 4.4l-.4 3.3-1.6-3.5c-.9-1.9-1.9-5.1-2.3-7.2-.6-3.4-.4-3.8 3.1-6.2 2.1-1.4 4.7-2.6 5.8-2.6 1.6 0 1.8.5 1.2 3.7zm26.2 7.8c-3.4 1.9-6.3 7.4-4.7 8.9.8.8 1.3.7 1.6-.2.5-1.4 6.3-1.7 6.3-.3 0 1.5-2.8 3.2-4.6 2.9-1.2-.2-2.6 1-4.2 3.9-2.7 4.9-2.3 6.3 1.7 6.3 1.6 0 3.5.7 4.2 1.6 1.2 1.5 1.1 1.8-.5 2.8-1.1.6-2.6 1.9-3.5 2.8-1.7 2-5.6 2.3-9.7.8-2.2-.9-2.5-1.3-1.4-2.3 1-.9 1.3-.9 1.7 0 .7 1.8 3 1.6 3.7-.3 1.1-2.8.6-5.4-.9-5.4-.8 0-1.5-.4-1.5-.8 0-.5-1.9-1.4-4.1-2.1-4-1.2-4-1.3-2.1-2.7 1.6-1.1 2-2.1 1.5-4.8-.5-3.2-.3-3.5 2.3-3.8 2-.2 3-.9 3.2-2.4.2-1.4 1.9-2.8 5-4.1 5.7-2.5 10.3-3.1 6-.8zm-170.1 35.1c-.3.3-1.2.4-1.9.1-.8-.3-.5-.6.6-.6 1.1-.1 1.7.2 1.3.5zM505.8 338c.5 0 1.2.7 1.5 1.4.3.8 2.2 1.8 4.1 2.2 2.6.4 3.6 1.1 3.6 2.5 0 1 .4 2 .9 2.3.4.3 1.1 1.8 1.4 3.3.3 1.6.8 3.5 1.2 4.5 1 2.5-3 3.3-6.1 1.3-1.4-.9-4.1-4.2-6.1-7.3-2-3.1-4.2-6.1-5-6.5-1.4-.9-1.7-3.5-.6-6.3.6-1.6.8-1.5 2.4.4.9 1.2 2.2 2.2 2.7 2.2zm29.5 5.1c1.9 3.6 2.9 4.5 5.5 4.7 1.8.2 3.2.9 3.2 1.7 0 .7.7 1.5 1.5 1.9.8.3 1.5 1.2 1.5 2.1 0 1.3-.7 1.1-3.2-.9-4-3-12.9-6.6-16.3-6.6-2.8 0-2.8 0-1.5 3.4.6 1.7.6 2.6-.1 2.6-.5 0-1.2-.7-1.5-1.5-.4-.8-1.2-1.5-1.9-1.5s-1.8-1.4-2.4-3c-.9-2.6-.8-3 .9-3 1 0 2.1-.9 2.5-1.9.5-1.8.8-1.8 3.3-.5 3.8 2 5.2 1.7 5.2-.8 0-2.7.4-2.3 3.3 3.3zm22.6 7.7c.8 2.6.5 3.5-2.5 6.7l-3.4 3.7-1-2.7c-1.4-3.7-1.4-3.9 2-6.3 1.7-1.3 3-3 3-3.9 0-2.3.9-1.1 1.9 2.5zM360.4 356c5 0 6.1 1 5.2 4.6-.9 3.5-5 5.2-7.4 3.1-1-1-2.6-1.7-3.5-1.7-.9 0-1.9-.4-2.2-1-.3-.5-1.9-.7-3.5-.3-2.7.5-3 .3-3-2.1 0-1.9.5-2.6 2-2.6 1.1 0 2-.6 2-1.4 0-.8.8-2.2 1.7-3.2 1.6-1.6 1.8-1.5 3 1.5 1.2 2.8 1.7 3.1 5.7 3.1zm133.4 10.6c.2.1-.6 1.2-1.7 2.3-2.8 2.8-5.9 2.7-7.1-.3-.5-1.3-1.5-2.6-2.2-2.9-.7-.3 1.4-.3 4.7 0 3.3.3 6.2.7 6.3.9zm30 2.3c1.6.9.5 6.4-1.1 5.8-1.8-.6-3.1-3.3-2.4-5.1.7-1.8 1.6-2 3.5-.7zm4.9 12.3c-.3.8-.6.5-.6-.6-.1-1.1.2-1.7.5-1.3.3.3.4 1.2.1 1.9zm-19.7 1.9c.9 1.6 1.8 1.9 4 1.4 2.6-.6 2.8-.4 3.3 3.2.3 2.1.9 5.3 1.3 7 .5 2.9.4 3.3-1.5 3.3-1.6 0-2.6 1-3.7 3.5-1.4 3.5-3.8 4.6-4.7 2.2-.2-.6.5-2.5 1.7-4 1.7-2.4 1.8-3.1.8-4.8-1.1-1.8-1.1-2.3.5-3.5 1.6-1.3 1.1-1.4-4.8-1.2l-6.7.3 3.4-3.8c1.9-2 3.4-4.2 3.4-4.7 0-1.7 1.9-1.1 3 1.1zm19 4.3c.8 2.2 1.6 2.5 6.7 2.8 5 .3 5.8.6 5.8 2.3 0 2.7-5.2 3.2-9.5 1-2.7-1.4-3.1-1.4-3.6 0-.3.8-1.5 1.5-2.5 1.5-2.2 0-2.5-3.2-.9-7.4 1.2-3.3 2.8-3.3 4-.2zm-357.8.3c3 2.7 2.1 3.3-5.4 3.3h-7.3l4-2.5c4.8-2.9 6.2-3 8.7-.8zm122.3 13.5c.8 2.8 1.5 5.7 1.5 6.3 0 1.3 4.9 6.1 6.8 6.6.9.3.3 1.7-1.7 4.5l-3 4 2.5 5.9c1.3 3.3 2.4 6.5 2.4 7.1 0 .7 1.6 1.9 3.6 2.9 3.9 1.8 5.2 3.9 3.6 5.8-.5.6-1.5 3.6-2.2 6.4-.9 3.8-1.7 5.3-2.9 5.3-.9 0-2.1.4-2.6.9-.6.5-2.9 1.2-5.2 1.6l-4.3.7v-3.9c0-6.3-1.5-7.3-4.1-2.9-1.9 3.3-2.3 3.6-3.2 2-.7-1.2-.5-2.7.8-5.1 1.6-2.9 2.3-3.3 6-3.3 3.6 0 4.4-.4 4.9-2.3 1.3-4.9.7-6.8-2.5-7.9-3.1-1.1-3.1-1.2-2.5-5.9.6-4.5.5-4.9-1.4-4.9-2.5 0-3.4-2.1-2.6-5.5.4-1.7 1.1-2.2 2.2-1.8 2 .7 3.4-1.3 3.4-4.9 0-1.9-.7-3.1-2.7-4-1.6-.8-3.3-2.8-4.1-5-1.4-3.6-1.3-3.9.9-5.8 3.6-3 4.7-2.5 6.4 3.2zm228-3.2c.3.5.1 1-.4 1-.6 0-1.1-.5-1.1-1 0-.6.2-1 .4-1 .3 0 .8.4 1.1 1zm-385.3 4.7c.9 1 1.9 4.5 2.2 7.8l.7 6-2.4-2.8c-1.8-2.1-3.1-2.7-6.5-2.7-2.3 0-4.2-.2-4.2-.4 0-.1.5-1.8 1.1-3.7.6-1.9 1.2-4 1.5-4.7.5-1.8 5.9-1.5 7.6.5zm402 10.5c-.2 2.7.1 4.9.8 5.3.8.5.5 1.4-1.1 3.1-1.2 1.3-1.9 3-1.6 3.8.9 2.2 5.6 3.1 8 1.7 1.4-.9 2.2-1 3-.2 3 3-11.6 10.2-15.8 7.8-1.4-.7-2-.7-2.3.3-.3.7-1.3 2-2.3 2.8-1.5 1.3-1.9 3-1.9 7.4 0 7 1.5 8.2 8.4 6.9 5.5-1 7.6-2.6 7.6-5.7s.8-3 5.8.6c4.7 3.4 4.7 3.5 2.7 7-.8 1.4-1.4 5.2-1.5 8.6 0 5.8-.2 6.2-2.5 6.8-2.7.7-5.4-.3-7.5-2.8-.7-.9-2.8-1.6-4.7-1.6-2.6 0-4.2-.9-7.3-4-2.1-2.2-6.4-5.2-9.4-6.6-3.1-1.4-5.3-3-5-3.5.3-.5 1.9-1.6 3.5-2.5 1.9-.9 3.2-2.5 3.5-4.3.4-1.9 1.6-3.3 3.7-4.2 2.1-.9 3.3-2.2 3.5-3.8.2-1.3 1.2-2.6 2.3-2.8 2-.6 2.2-1.7 1.3-7.6-.7-3.6-.8-3.8-3.8-3.1-1.7.3-3.8 1.3-4.8 2.1-1.5 1.3-1.6 1-2-4.1-.1-3.1-.1-5.6 0-5.6.2 0 1.7 1.4 3.3 3.1 1.8 2 3.5 2.9 4.5 2.5.9-.3 3.3-.6 5.5-.6 3.6 0 3.9-.2 2.9-1.9-1.1-2.2-1.4-8.4-.3-9.5.4-.4 1.4-.5 2.3-.4 1.1.3 1.4 1.4 1.2 5zm-186 10.2c.4.6.8 1.7.8 2.5 0 .9 1 1.2 3.5.9 3.3-.4 3.5-.2 3.5 2.4 0 2.1.5 2.8 2 2.8 1.1 0 2 .5 2 1.1 0 1.6-14.2.1-15.6-1.7-.6-.8-1.9-1.4-2.8-1.4-2.3 0-2-1 1.1-4.2 1.5-1.5 2.1-2.8 1.5-2.8-.7 0-1.2-.5-1.2-1.1 0-1.3 4.2-.1 5.2 1.5zm-32.5 7.8c5.5 3.8 5.1 4.9-1.8 4.7-3.3-.1-6.2-.6-6.5-1.1-.6-.9 3.3-5.8 4.5-5.8.2 0 2 1 3.8 2.2zm-68.1.3c.9 2.3-1.5 4.8-3.3 3.3-2.5-2-4.2 1.1-4.3 8.2-.1 3.6.1 7.4.5 8.6.5 1.7-.2 2.7-4.2 5.2-2.6 1.7-5.4 3.6-6.1 4.2-.9.8-2.1.4-4.6-1.5l-3.4-2.6-6.7 3.5-6.7 3.5-3.9-1.7c-2.2-.9-3.9-2.2-3.9-2.9 0-.7-.6-1.3-1.4-1.3-.8 0-1.8-.9-2.1-2-.4-1.1-3-3.2-5.8-4.7-2.9-1.4-5.5-3.1-5.9-3.7-1.3-2-.8-3.6 1.1-3.6 1 0 3.5-1.1 5.5-2.5 2.6-1.7 5-2.5 8.1-2.5 2.4 0 4.7-.5 5-1 1.2-1.9 3.3-1 4.4 2 1.1 3.4 1.3 3.4 13.4 2.4l7.5-.7 1.1-4.3c1-3.8 1.5-4.4 4.9-5.3 9.4-2.4 10.1-2.5 10.8-.6zm241.6 2.4c1.6 1.6 1.9 2.7 1.4 5.6-.6 3-1 3.5-2.7 3-1.5-.5-1.9-.2-1.9 1.9 0 1.4.5 2.6 1 2.6.6 0 1 1.3 1 3 0 3.6-1.5 3.8-4 .8l-1.8-2.3-1.4 3.3-1.3 3.3-4.9-5-5-5 1.5-4.8 1.5-4.8 4.3.3c3.6.2 4.4-.1 4.8-1.8.7-2.6 4.7-2.6 7.5-.1zm-232.4 16.4c-.2.7 1.4 3 3.5 5.1 2.2 2.2 3.7 4.5 3.5 5.6-.2 1.1.5 2.5 1.6 3.3 2.2 1.6 3.3 9.5 1.7 12.6-1.6 3-5.6 2.7-15.1-1-4.4-1.7-8.4-2.8-8.9-2.5-.5.4-1.2.2-1.6-.4-.3-.5-.2-1 .3-1 1.5 0 7.9-13 8.7-17.5 1-5.2 1.2-5.5 4.1-5.5 1.5 0 2.4.5 2.2 1.3zm52.6 11.7c-.4 6.1-1.7 12.9-2.5 12.4-.5-.3-1.4-2.4-2-4.7-.6-2.3-1.6-4.9-2.3-5.9-1.2-1.6-1.5-1.6-5 .8-2.3 1.6-3.9 3.6-4.3 5.5-.8 4.1-2.8 3.6-3-.7-.2-4.5 3.6-8.3 8.4-8.4 1.7 0 3.4-.3 3.6-.8.3-.4 2-.7 3.9-.7 2.9 0 3.3.3 3.2 2.5zm74.8 11.4c.3 2.9-.1 3.8-2.9 6.1-3.4 2.7-4.2 5.2-2.1 7.3.6.6.9 1.4.7 1.7-.3.2-2-1.5-3.7-4-1.7-2.5-3.8-4.5-4.7-4.5-1.6 0-2-1.8-.7-3.6.4-.6 2.1-1.5 3.8-1.8 1.8-.4 4-1.6 5-2.6 2.8-2.8 4.1-2.4 4.6 1.4zm163.7.5c2.1 1.6 2.4 2.6 2.2 7.1-.2 4.6.2 5.7 2.5 8.1l2.8 2.9h-5.5c-3.6 0-6.7.7-9.3 2.1-2.1 1.1-4.2 1.7-4.7 1.2-.4-.4-.9-3-1-5.7-.3-4.6-.2-4.9 3.1-6.5 2.7-1.3 3.7-2.6 4.9-6.4.8-2.6 1.7-4.7 2-4.7.3 0 1.7.9 3 1.9zm-243.8 3.3c.6 1.3 2.7 3.7 4.5 5.4 3.6 3.3 4.5 6.4 1.9 6.4-.8 0-2.4.9-3.5 2-2.5 2.5-3 2.5-3 .1 0-1.1-.4-2.3-1-2.6-.5-.3-1-1.5-1-2.6 0-1-.6-1.9-1.4-1.9-.8 0-2.5-1.4-3.7-3.1-2.2-3.1-2.2-3.2-.4-4.5 2.9-2.1 6.3-1.7 7.6.8zm170.8 14.1c.6.8 2.1 1.3 3.3 1.2 3.6-.3 5.5 1.2 6.8 5.2.7 2.1 2.7 5.7 4.5 8 3.3 4.4 13.1 12.3 15.2 12.3 1.8 0 8.2 3.4 8.3 4.4 0 .8-5.1.2-9.3-1-1.6-.5-1.8-.1-1.5 3.3.3 3.4 0 3.8-2.1 4.1-2.1.3-2.3.7-1.8 4.8.2 2.4.1 4.1-.4 3.8-.5-.3-.9-1.5-.9-2.8 0-1.2-.5-2.7-1.2-3.4-1-1-.7-1.8 1.5-3.8 1.5-1.3 2.7-3.1 2.7-3.9 0-.7.3-2.1.7-3.1.5-1.4.2-1.6-2.3-1.1-3.5.7-9.8-2.8-9-4.9.8-2.2-3.3-1.7-7.9.9-4 2.3-4 2.4-3.9 8 .1 3.1-.1 5.7-.5 5.7-.3 0-2.7-3.4-5.3-7.5-4.7-7.2-6.1-12.6-3.8-14 .6-.3 1-.1 1 .4 0 .6.8 1.1 1.9 1.1 2.6 0 3.9-6.5 1.7-8.9-2.8-3.1-3.6-6.7-1.8-8.5 2-1.9 2.6-2 4.1-.3zm-77 7.3c-.7.8-.8 2.9-.4 5.4.7 4-.1 5-2.2 2.9-.8-.8-1.6-.2-2.9 2.2-.9 1.9-2 3.6-2.4 3.9-.4.3-.9 1.4-1.1 2.4-.4 1.8-2.6 2.6-11.6 4.6-.1 0 .3-1.4.9-3 1.3-3.8.5-5.8-2.7-7-1.4-.5-2.5-1.6-2.5-2.4 0-2 3.9-4.6 6.8-4.6 1.2 0 2.5-.7 2.8-1.5.6-1.4.8-1.4 1.8 0 .8 1.1 2.3 1.5 4.6 1.3 2.9-.2 3.9-1 5.5-4 1.5-2.8 2.3-3.4 3.2-2.6 1 .8 1 1.4.2 2.4zm129.8-.6c3 0 3.4.3 3.1 2.1-.5 3.6-3.3 4.7-5.8 2.4-1.2-1.1-2.6-2.8-3.2-3.9-.9-1.6-.7-1.8.7-1.3.9.4 3.2.7 5.2.7zm95.6 6.1c1.6.7 2.9 2.7 4 6.3 2.4 7.4 2.2 8.9-1.8 13.6-2.5 3-3.3 4.8-2.9 6.5.3 1.3-.3 3.8-1.5 6-1.8 3.4-1.8 4-.6 5.9 2.2 3 1.8 4.9-1.4 8l-2.9 2.8-.4-2.8c-.2-2.1-.9-3-2.4-3.2-2.7-.4-3.4-3.5-3.4-15.3 0-8.2.2-8.9 2-8.9 1.1 0 2.9-.9 4-2 1.7-1.7 2-3.3 2-10 0-8.6.4-9.1 5.3-6.9zm-156.6.5c-.3.3-1.2.4-1.9.1-.8-.3-.5-.6.6-.6 1.1-.1 1.7.2 1.3.5zm-51.7 6.2c0 1.1-.9 2.7-2 3.7s-2 2.4-2 3.2c0 .7-1.2 1.8-2.6 2.3-3.5 1.4-4.4 1.2-3.8-.5.4-1.1 0-1.5-1.6-1.5-2 0-2.2-.4-1.7-3.6.3-2 .8-3.8 1.1-4.1.4-.4 5.4.8 8.9 2.2 1.3.5 1.7.2 1.7-1.4 0-1.2.5-2.1 1-2.1.6 0 1 .8 1 1.8zm.8 20.7c-1.8 2.5-4.2 4.8-5.3 5.1-1.4.3-2.1 1.3-2.1 2.6.1 1.5-1.6 3.3-5.6 6.1-4.8 3.3-5.8 4.5-5.8 6.9 0 4.9 1.7 7 5 6.3 3.1-.7 4.2.4 4.6 4.2.2 2.1.1 2.1-1.2.8-.9-.8-2.6-1.5-3.9-1.5-1.9 0-2.2.4-1.7 2.2.5 2 .3 2.1-3.9 1.4-2.4-.4-5.3-1.6-6.4-2.7-2-2-2-2 .2-2.5 2.9-.8 3.9-5.6 2.4-11.2-1.1-3.8-1-4.3 1.1-6.4 1.5-1.5 3.5-2.2 6.6-2.4 3.6-.1 4.9-.7 8.3-4.2 2.2-2.3 4.4-4.2 4.9-4.2s1.2-1.1 1.6-2.5c.4-1.6 1.3-2.5 2.5-2.5 1.6 0 1.5.6-1.3 4.5zM473 541c2.6 2.6 3.8 2.5 4.2-.3.3-2.2.4-2.2 1.8.4.8 1.5 3.4 5 5.8 7.9 2.3 2.8 4.2 6 4.2 7s.7 2.3 1.5 3c1.7 1.4 1.1 5.8-1.7 11.3-1.7 3.3-2.1 3.6-4 2.6-2.1-1.2-3.8 0-3.8 2.8 0 1.5-2 1.6-7.9.2-5-1.1-8-4.2-8.1-8.1 0-1.5-.5-3-1.1-3.4-.7-.4-.9-2.4-.6-5.4.6-5-.4-7-3.4-7-1 0-2 .6-2.2 1.2-1.1 2.6-.7-4 .4-7.1.7-1.9 1.8-3.1 2.9-3.1 1 0 2.8-.9 4.1-2 3.1-2.5 5.4-2.5 7.9 0zm-100.6 4c.5 2.8.8 3 5.1 3h4.5v4.5c0 4.5 0 4.5-3.4 4.5-2.4 0-3.9-.7-5-2.1-.8-1.2-2.5-2.7-3.7-3.3-1.5-.7-2.6-2.4-3-4.6-.9-4.2-.5-5 2.5-5 1.8 0 2.5.7 3 3zm133.5 18.7c1.5 5.3 1.4 6.3-.9 6.3-1.5 0-2 .7-2 2.5 0 3.4-1.6 3.1-3.6-.6-1.7-3.4-1.1-6 2.3-9.8 2.6-2.8 3.1-2.6 4.2 1.6zm-202.1 21.2c.2 2.3-.2 5.5-.9 7-1.2 2.7-1.3 2.8-4.1 1.2-3.2-1.8-3.2-3.6.3-9.6 2.7-4.5 4.3-4 4.7 1.4zm85.9-2.2c.5 1.4-4 2.8-5.7 1.8-.8-.5-.8-1.1.1-2.1 1.4-1.7 5.1-1.5 5.6.3zm93.3 75.8c2.6 1.3 3 2.1 3 5.6 0 3.3-.3 4-1.7 3.7-1-.2-2.1-1.8-2.6-3.8-.5-1.9-1.3-3.9-1.8-4.5-1-1-1.2-2.5-.4-2.5.4 0 1.9.7 3.5 1.5zm13.8 13.5c1.4 2.1 2.2 4.8 2.2 7.3 0 3.7.1 3.9 1.8 2.5 3.2-2.8 5.2-3 5.2-.5 0 1.8-.9 2.5-4.4 3.6-5.3 1.5-6.6 1-6.6-2.9 0-1.7-1-4-2.5-5.6-2.7-2.9-3.2-5.3-1.3-7.2 1.7-1.7 2.9-1.1 5.6 2.8zm.7 33.1c.4 1.7 2.4 4.7 4.6 6.7 2.1 2 3.9 4.5 3.9 5.5s1.1 2.9 2.5 4.3c2.6 2.6 2.4 5-.3 5.7-1 .2-4.3-.9-7.4-2.5-3.2-1.5-6.6-2.8-7.8-2.8-1.2 0-2.2-.9-2.6-2.4-.7-2.8.1-4.6 2.1-4.6 1.8 0 2.5-2.3 2.5-8.1 0-5.5 1.5-6.6 2.5-1.8zM286 712.4c0 1.2.3 3.1.6 4.3.4 1.3.2 2.3-.3 2.3-1.3 0-4.6-9.7-3.7-11.1.9-1.6 3.4 1.7 3.4 4.5zm18 17.2c0 1 .6 1.4 1.4 1.1.8-.3 2 .1 2.6.9 1 1.1.7 1.9-1.7 4.1-5.1 4.9-6.6 7.8-5.1 10.2.7 1.2 2 2.1 2.9 2.1 2.4 0 4.6 3 5.2 7.4.3 2.1 2 6.7 3.7 10.3 1.6 3.6 3 6.9 3 7.4 0 1.2-4.6 1.1-9.2-.1-2.2-.6-4.8-2.5-6.7-4.8-1.7-2-3.8-4.6-4.7-5.6-1.3-1.5-1.5-2.2-.5-3.5.6-.9 1.8-3.1 2.7-4.9 1.3-3 1.3-3.8-.1-7.5-.9-2.3-1.7-6.2-1.8-8.6-.2-4.2 0-4.4 3.3-5.6 2.3-.8 3.4-1.8 3.2-2.9-.2-.9.2-1.6.8-1.6.5 0 1 .7 1 1.6zm242.4 4.5c1.4 1.1 2.6 2.3 2.6 2.7 0 1.2-12.5.1-13.2-1.1-2.3-3.7 6.3-5 10.6-1.6z"/><path d="M466 548.4c0 2.4-.3 6.4-.6 9l-.7 4.6h3.1c2.3 0 3.7-.9 6.1-3.9 1.7-2.1 3.1-4.4 3.1-5 0-.5.9-1.5 2-2.1 2.5-1.3 2.6-2.9.3-3.6-1-.4-3.2-1.2-5-2-1.7-.8-4.3-1.4-5.7-1.4-2.4 0-2.6.3-2.6 4.4zM444.3 49.7c-.7.2-1.3 1.8-1.3 3.4 0 2.2.7 3.2 2.6 4.1 2.2 1.1 2.8 1 4-.7 1.8-2.5 1.8-3.1-.6-5.5-2.1-2.1-2.6-2.2-4.7-1.3zm330.6-.2c-.1.6-.2 1.9-.3 3-.1 1.1-1.3 2.5-2.8 3.3-1.6.7-3.3 2.2-3.9 3.4-2.1 3.8.7 16 4.6 20.2 2.2 2.4 3.1 2.6 10.3 2.6h7.9l4.1-4.9c3.5-4.1 4.2-5.7 4.2-9.3 0-8.1-5.2-14.8-11.5-14.8-1.3 0-2.7-.5-3-1-.3-.6-2.1-1-3.9-1-1.7 0-3.7-.5-4.4-1.2-.7-.7-1.3-.8-1.3-.3zm-44.1 7.6c-2.8 1.6-2.3 4.9.6 4.9 3 0 5.7-2.5 5-4.5-.7-1.7-3.1-1.9-5.6-.4zM266.5 64c-1.1 1.6-2.3 3-2.7 3-1.5 0-.8 5.9 1.4 11.5 2 5.3 2.1 6.2.9 11.9-.7 3.3-1.7 6.6-2.3 7.3-.5.7-.7 1.7-.3 2.3.4.6.8 2.1.9 3.3 1.1 9.4 3.6 12.1 9.4 10.5 5.3-1.4 5.9-2.2 6.5-8.1 1-9.3 2.4-13.6 4.8-15.6 2.1-1.7 2.2-2.1 1-4.4-.7-1.4-1-3-.6-3.7.4-.6.9-4.5 1.1-8.5l.4-7.4-5.1-2.5c-3-1.6-6.8-2.6-9.2-2.6-3.5 0-4.5.5-6.2 3zm-31.7 6c.3 3.2 0 5-.7 5-1.3 0-1.4 2-.2 3.9.7 1.1 1.5 1.1 4.5.1 2.1-.6 3.6-1.5 3.4-1.9-.2-.3-1.4-3.2-2.7-6.4-3.1-7.1-4.7-7.4-4.3-.7zm205.1-3.4c-1.1 1.4-.9 1.9 1.1 3.5 6.5 5.2 6.9 5.3 9 3.4 2.7-2.4 2.5-4-.6-6.4-3.2-2.5-7.6-2.7-9.5-.5zm61.8 7.2c-1.8 1.9-2.4 8.2-.8 8.2.5 0 .6 2 .3 4.5-.4 4.3-.3 4.5 2.1 4.5 4.4 0 5.5-4.9 1.9-7.8-1.4-1.1-1.4-1.2.1-1.2 2.2 0 3.1-3.8 1.8-7.3-1.2-3.1-3.1-3.5-5.4-.9zm417.4 5.1c-1 1-2.2 3.7-2.6 5.9-.9 5.4 1.7 8.1 8.7 8.9 6.1.7 7.8-.8 7.8-7.1 0-5.2-.6-6-5.4-8-4.9-2.1-6.2-2-8.5.3zM223 80.6c0 1 1.2 3.7 2.6 6.1 1.9 3.4 3.1 4.3 4.7 4.1 4.8-.7 2.6-4.8-5.5-10.6-1.5-1.1-1.8-1.1-1.8.4zm328.6 14.5c-.9 1.6-2.8 3.7-4 4.6l-2.4 1.8 2.4 4.7c2.8 5.5 7 8.8 11.2 8.8 1.7 0 3.2.6 3.5 1.2.3.9 1.3.5 3.1-1.1 2.4-2.2 2.6-3.1 2.6-10.2v-7.7l-3.3-1.5c-1.8-.9-5.1-2-7.4-2.5-3.8-.9-4.1-.8-5.7 1.9zm-69.2 6.4c-.9 1.4-2.2 2.5-2.8 2.5-.7 0-1.7 1.9-2.3 4.2-1 3.7-.9 4.6.9 7 2.2 3.1 7.4 3.9 8.4 1.3.4-.8 1.2-1.5 2-1.5 1.1 0 1.4-1.8 1.4-8v-8h-3c-2 0-3.5.8-4.6 2.5zm27.1-1.3c-3.1 1.7-5.5 5.1-5.5 7.9 0 2.9 2 5.2 3.7 4.1 2-1.3 5.3-7.7 5.3-10.5 0-3-.5-3.2-3.5-1.5zm402.8-.5c-.8.2-1.3 2.2-1.3 4.4 0 5.1 2.9 8.2 6.8 7.3 3.8-.9 5.2-3.1 5.2-8.1V99l-4.7.1c-2.7 0-5.4.3-6 .6zm-179.6.9c-.4.4-.7 1.6-.7 2.6 0 1.4.8 1.8 3.6 1.8 3.1 0 3.5-.3 3.2-2.3-.2-1.5-1.1-2.3-2.8-2.5-1.4-.2-2.9 0-3.3.4zm-490.7 2c-1.4.7-2.1 1.4-1.6 1.4s.1.9-.8 1.9c-1.5 1.7-1.6 2.4-.5 6 .6 2.2 2.2 4.9 3.3 6.1 2 1.8 2.7 1.9 7.8.8 4.3-.9 5.8-1.7 6.2-3.2 2.1-7.8-1.9-14.7-8.2-14.5-2.1.1-4.8.7-6.2 1.5zm291.5 4c-2.3 5.5-2 6.1 3.2 6.7 6.5.7 7.3.2 7.3-4.8 0-4.6-.9-5.5-6.1-5.5-2.4 0-3.1.6-4.4 3.6zm-414 .3c-5.9 2.1-8.5 3.4-8.5 4.4 0 .5-1.1 2.5-2.6 4.4-2.1 2.7-2.5 4.2-2.2 8.4.3 4.6.7 5.5 4.1 8.2l3.7 3.1 6.8-1.3c7-1.4 10.3-3.5 12.8-8.4 1.2-2.2 1.3-3.9.3-9.2-1-6-1.4-6.7-4.3-7.9-4.6-1.9-7.9-2.4-10.1-1.7zm23.8 6.1c-2.8 1.1-3.1 5-.5 5 2.8 0 5.6-2.5 4.9-4.4-.7-1.8-1.2-1.9-4.4-.6zm640.7 1c-9.8.9-14.3 2.8-16 7-.7 1.6-2 3.2-3 3.5-1 .3-3.9 2.8-6.4 5.5l-4.6 4.9v9c0 6.7-.7 11.9-2.9 20.3-3.8 14.6-3.8 14.5-8.2 19.9-9.7 11.7-11.3 20.9-4.8 27.2 4.1 3.9 5.9 7 5.9 9.7 0 1.6-.7 2-3.7 2-4.5 0-10 3.1-10.5 5.8-.3 2-.4 2-5.3.1-4.2-1.6-5.4-2.7-7.8-6.9-4.6-8.4-10.8-9.3-14.9-2-1.6 2.7-3 4-4.4 4-2.5 0-3.4 1.8-3.4 6.3 0 4.3.8 5.2 6 7.5 6.9 3 8.2 5.3 8.4 13.8.1 6.2-.2 7.6-2.1 9.6-2.3 2.4-3.3 8.8-1.4 8.8.5 0 1.4 2.3 2 5 1.7 8 3.7 12 6 12 1.7 0 2.1-.9 2.7-5 .6-4.2 1.1-5.2 4-6.9 5.8-3.4 9.1-11 6.2-13.9-.9-.9-.3-1.1 2.8-1 2.1.1 5.8-.2 8-.6 4-.8 4.2-.7 5.2 2.3.7 2.1 1.8 3.1 3.1 3.1 2.2 0 5.9 4.4 8.6 10.3 1 2.1 3 4.4 4.6 5.2 3.7 2 9.4 1.9 11.3-.1 3.1-3 1.5-6.3-5.5-11.6-1.9-1.4-5.7-4.9-8.4-7.7s-5.6-5.1-6.6-5.1c-.9 0-2.2-.6-2.8-1.4-1.4-1.7 3.9-5.5 11.8-8.5 8.3-3.1 10.1-5.3 10.1-12.4v-6l4.4.5c2.6.3 5.9 1.7 8.2 3.4 2.2 1.5 4.1 2.9 4.3 3.1 1.1.7-2.4 6.2-4.7 7.4-3.2 1.7-4.2 2.8-4.2 5.1 0 1.3.8 1.8 2.8 1.8 3.1 0 7.2-2.5 7.2-4.4 0-.7 1.6-2.1 3.5-3.1 3.1-1.7 4.2-1.8 11.1-.8 6.3.9 8.1 1.6 9.8 3.7 1.3 1.6 3.9 3 7.1 3.7 2.8.7 8 2.3 11.7 3.7 6.5 2.4 7.5 2.5 16.7.6 1.8-.4 5.9-2.1 8.9-3.8 5.2-2.9 5.8-3.6 7.8-9.4 2.7-8 5.8-11.2 14.4-15.1 6.5-3 7.4-3.8 14.7-13.8l7.7-10.7.4-8.6c.3-7 .1-8.8-1.2-9.9-1.2-1-1.6-3.1-1.6-7.9 0-7.6-2.5-13.7-7.1-17.6-2.2-1.9-2.9-3.3-2.9-5.9 0-5-4-13-8.8-17.6-4-3.9-11-8-16.2-9.6-1.4-.4-3.4-1.5-4.5-2.5-3.2-2.8-8-3.9-25-5.5-16.6-1.6-34-1.7-48.5-.5zm-629.4 4.9c-.6.9-7.2 4.2-10.8 5.4-1.9.7-2.4 4.2-.8 5.2.6.3 1 1.5 1 2.5 0 2.8 2.5 3.2 21.5 3.1 15.6 0 17.8-.2 21.5-2.1 5.2-2.6 5.9-4.5 2.8-7.3-1.3-1.2-3.1-3.3-4-4.6-1.7-2.4-1.8-2.4-7.2-1.1-4.8 1.1-6.1 1.1-9.8-.3-4.7-1.8-13.3-2.3-14.2-.8zm99.3 5.2c-1.1 2.2-.9 13.3.3 14.5 1.2 1.1 6.8-.8 9.8-3.3 3.7-3.1 3.9-7 .5-10.7-3.1-3.4-8.9-3.7-10.6-.5zm341.8.2c-4.2 3.3-3.5 6.9 1.7 8.2 3.3.8 4 .6 5.2-1 1.9-2.6 1.7-5.2-.6-7.5-2.5-2.5-2.9-2.5-6.3.3zm58.1.2c-1.7 3.8 0 7.8 3.8 8.9l3.1.9-1.9 4.4c-1.6 3.6-1.7 4.9-.8 8.3 1.5 5.6 5.9 12.6 8.7 13.9 3.7 1.7 13.3 1.4 15.4-.5 1-.9 3.2-2.3 5.1-3.2 4.9-2.5 7.8-7.5 7.8-13.4 0-6.1-2.1-9.4-9-13.8-4.8-3.1-5.5-3.2-12-2.8-5.8.4-7.3.9-8.9 2.9-2.5 3.1-3.3 2.2-2.1-2.1 1.2-4.3-.1-6-4.6-6-2.7 0-3.7.5-4.6 2.5zm-14.6 4.7c-.6.6-1.2 1.7-1.2 2.4 0 .6-.7 1.7-1.5 2.4-2.7 2.3.1 4 6.6 4h5.9v-3.4c0-1.8-.6-3.8-1.2-4.4-2.2-1.7-7.3-2.3-8.6-1z"/><path d="M243.1 135.6c-1.2 1.9-2.1 4.5-2.1 5.7 0 4.5-1.2 6.5-4.1 7.1-1.5.3-3.7 1.3-4.7 2.3-1.7 1.7-1.7 1.9.2 5.3 1 1.9 2.6 4 3.4 4.7 1.3 1.1 1.3 1.5-.2 3.7-1.5 2.4-1.5 2.6.4 3.6 1.7.9 1.9 1.8 1.4 7.3-.3 4.1-.1 7 .8 8.7 1.2 2.2 1.1 2.7-1 4.5-2.1 1.8-2.5 3.3-3 9.6-.3 5.1-1.1 8.1-2.3 9.8-1.1 1.3-1.9 3.4-1.9 4.7 0 2.2-.4 2.4-4.6 2.4-5.6 0-5.6 2 0 3.3 2.4.6 4.1 1.8 4.8 3.2.5 1.2 2.5 3 4.4 3.8 2.5 1.3 3.4 2.3 3.4 4.2 0 1.5.6 2.5 1.4 2.5.8 0 2.1.3 3 .6 1.2.4 1.6 0 1.6-1.6 0-3.3 1.6-5.6 5.4-7.8 3.9-2.3 7.6-8.6 7.6-12.9 0-1.5 1.1-4.6 2.5-6.8 1.6-2.7 2.4-5.5 2.5-8.6 0-6.2-2-7.9-9.4-7.9-6.5 0-6.9-.5-5.8-7l.8-4.5 4.8.3c6.2.3 7.7-.9 6.5-5-.7-2.5-.5-3.4.9-4.4 2.3-1.8 6.1-1.7 6.8.1 1 2.4 4.3 1.8 5.4-1.1 1.8-4.6 1.2-8.4-1.3-9.3-1.3-.5-2.9-1.6-3.6-2.5-1.5-1.8-5.2-2.1-6.8-.5-1.7 1.7-6.3-1.8-6.3-4.7 0-1.5-.6-2.4-1.5-2.4-1.2 0-1.5-1.3-1.5-5.8 0-8.8-4.1-11.2-7.9-4.6zm30.3-1c-.7 2.9.7 4.4 4.4 4.4 2.8 0 3.7-2.1 2.2-4.9-1.6-3.1-5.8-2.8-6.6.5zm298.4.5c-2.1 1.1-2.4 4.8-.5 5 3 .3 5.3-.5 7.4-2.4 1.2-1.2 2.3-2.5 2.3-3 0-1.1-7.2-.8-9.2.4zm-141.6 5.1c-3.4 3.4.1 8.2 5.6 7.6 2.1-.2 2.8-.9 3-3 .5-4.2-5.7-7.5-8.6-4.6zm-85.6 4.4c-.9 2.2 1.8 6.8 6.1 10.3 4.1 3.4 5.8 3.8 6.6 1.8.7-1.8-2.5-8.9-5.2-11.6-2.5-2.5-6.6-2.8-7.5-.5zm176.9 6.1c-2.8.7-4.3 2.9-3.8 5.8.8 3.8 2.8 5 7 3.9 4.6-1.2 6.5-5.4 3.7-8.5-1.7-1.9-3-2.1-6.9-1.2zm-444.8 8.4c-4.5 2.9-6.2 5.9-3.4 5.9.7 0 2.2 1.8 3.3 4.1 1.9 3.9 2.1 4 7.6 4.4 6.2.4 9.8 1.8 9.8 4s2.1 1.8 2.7-.5c.4-1.5 1.4-2 3.8-2 2.7 0 3.5-.5 4.5-3 1.6-3.8.7-6-2.5-6-1.7 0-2.5-.5-2.5-1.8 0-1-1.5-3.2-3.3-5-3-2.9-3.9-3.2-9.3-3.2-5.1 0-6.8.5-10.7 3.1zm-20.4 1.5c.6 3.8 7.4 13.7 10.6 15.4 2.6 1.3 5.1.3 5.1-2.2 0-3.7-6-12.8-8.4-12.8-.6 0-1.7-.9-2.4-2s-2.2-2-3.3-2c-1.9 0-2.1.4-1.6 3.6zM729 164c0 .5-.6 1-1.4 1-1 0-1.2.8-.7 3.2.5 2.6 1.2 3.4 3.3 3.6 2.4.3 2.8-.1 3.3-3.2.4-1.9.4-3.9 0-4.5-.8-1.4-4.5-1.4-4.5-.1zm-385.4 16.5c-.8 4.1-.2 5.5 2.4 5.5 3.9 0 5-1.1 5-5.1 0-3.8-.1-3.9-3.4-3.9-3.1 0-3.4.3-4 3.5zm61.3.6c-.7 1.3-1.6 4.9-2 7.9-.4 3-1.1 6.7-1.4 8.2-.6 2.4-.4 2.8 1.5 2.8 1.3 0 2.4-.8 2.7-2 .4-1.6 1.4-2 5-2 7.3 0 8.3-1.1 8.3-8.5 0-7.1.2-6.9-8.2-8-4.2-.6-4.8-.5-5.9 1.6z"/><path d="M265 183.2l-1.9 3.1 2.5 2.9c1.3 1.6 2.4 3.4 2.4 3.9 0 1.9 1.6.7 4.4-3.2l2.8-4-2.8-3c-3.5-3.7-5-3.7-7.4.3zm-147 1.9c-.6 1.1-.9 3.3-.5 4.9.9 4.2 3.7 6.2 8.2 5.8 3.5-.3 3.8-.6 4.1-3.6.4-4-.9-5.8-5.6-7.8-4.5-1.8-4.9-1.8-6.2.7zm399.2 11.1c-.8.8-.3 2.1 2.1 5.2 5.2 6.7 5.3 6.8 8.1 5.4 3.6-1.6 3.7-6.5.2-7.4-1.3-.3-2.6-1.4-2.9-2.5-.6-2.2-5.5-2.7-7.5-.7zm35.5 15.5c-.3 2.1-.9 4.8-1.3 6-.9 3.1 1 3 4.2-.2s3.1-8.8-.2-9.3c-1.8-.3-2.2.3-2.7 3.5zM177 218.5c-6.7 1.7-8.7 2.6-9.5 4.3-.5 1.2-1.3 2.2-1.7 2.2-.5 0-.8 2.8-.8 6.2 0 5.7.4 6.7 3.5 10.7 1.9 2.4 3.5 5.1 3.5 6.1 0 2.5 7 10.1 10.8 11.7 2.7 1.1 5.7 1.3 13.3.7 5.5-.3 9.9-1.1 9.9-1.6s-.4-1.7-.9-2.6c-1-1.8-.4-5.2 2.6-16.4 1.8-6.6 1.3-9.6-2.5-13.6-4-4.3-7.1-6-13.2-7.3-3-.6-5.7-1.4-6-1.8-.3-.3-4.3.3-9 1.4zm728.3 8.2c-2.3.9-1.5 4.2 1.1 4.9 1.3.3 2.6 1.4 2.9 2.5.6 2.2 1.6 2.4 4.2.5 2.1-1.5 1.5-4.3-1.2-5.3-1-.4-2.4-1.3-3.1-2-1.4-1.4-1.9-1.5-3.9-.6zM681 232.2c-4.6 1.3-9 4.6-9 6.6.1 2.7 4.6 7.6 6.4 6.9.8-.3 2-2.4 2.6-4.6.6-2.2 2.2-4.9 3.5-5.9 4.6-3.7 3.1-4.9-3.5-3zm-613 4.3c-1.4.8-4.2 1.4-6.2 1.5H58l-.2 5.2c-.4 11.1 1.1 15.8 4.9 15.8.8 0 2.8.7 4.4 1.6 2.5 1.3 3.6 1.3 6.7.3 6.4-2.1 8.1-3.9 8.2-8.7 0-4.8-4.2-14.2-6.4-14.2-.7 0-1.9-.7-2.6-1.5-1.5-1.8-1.8-1.8-5 0zm197.7 7.7c-.9.7-1.9 2.5-2.2 4-.5 2.1-.1 3.3 1.9 5.3 3.8 3.8 7 3.1 7.4-1.6.2-2.3-.3-4.2-1.2-5.2-.9-.9-1.6-2-1.6-2.6 0-1.5-2.2-1.4-4.3.1zm424.6 1c-5 5.5-5.3 9.5-.5 7.7 4-1.5 7.2-4.9 7.2-7.6 0-3.1-3.9-3.1-6.7-.1zm-69.2 4.2c-1.5 1.6-2.5 4.2-2.9 7.1-.5 4.7-.5 4.7 1.8 3.5 4.3-2.3 9.1-7.9 8.8-10.3-.5-3.3-4.8-3.4-7.7-.3zm-532.8 3.3c-1.8.2-3.3.8-3.3 1.3s-.7 1.6-1.6 2.4c-.9 1-1.3 2.4-.9 3.6.5 1.6 1.5 2 4.9 2 4.1 0 4.3-.2 5.4-3.9 1.5-4.9 1.5-6.1 0-5.9-.7 0-2.8.3-4.5.5zm764.9 2.9c-2.5 1.7-3.1 8.4-.9 10.1 1.9 1.6 8.3 2.3 9.6 1 2.4-2.4 1.2-6.4-2.7-9.6-3.6-2.8-4-2.9-6-1.5zm-171.5 1.1c-1.1 1.1-.8 5.8.5 7.1 2.9 2.9 7.8.7 7.8-3.5 0-3.2-6.1-5.9-8.3-3.6zm-51.5 2.9c-3.1 2.2-3.2 10.4 0 13.4 2.5 2.3 5.6 2.6 8.2.7 1.5-1.1 1.6-1.9.7-5.6-.5-2.5-2.2-5.6-3.8-7.3-2.7-2.6-3-2.7-5.1-1.2zM156.5 263c-3.2 1.2-4.7 3.6-4.3 6.7.3 2.5.8 2.8 4.2 3.1 5.7.5 8.1-.4 9.5-3.5 1.2-2.5 1-3-1.4-5-2.7-2.4-4.6-2.7-8-1.3zm53.7-.3c-3.5.3-4.2.7-3.8 2.1.3.9.8 3.5 1.1 5.7 1.1 6.7 1.4 7.3 5.6 8.9 6.1 2.4 11.3 2.1 12.8-.8 1.7-3.1.6-9.4-2.2-12.9-2.4-3-5.9-3.8-13.5-3zM50 264.4c-1.8 2.3-.8 6.1 1.7 6.4 1.7.2 2.6-.4 3.5-2.3 1.1-2.4 1-2.9-.7-4.1-2.4-1.8-3-1.7-4.5 0zm540.4 4c-1.6 4.3 1.5 6.9 5.1 4.2 1.6-1.2 1.8-1.8.9-3.3-1.4-2.3-5.2-2.9-6-.9zm87.2 5.8c-.4 2.5-1.5 6.1-2.6 8-1.6 3.1-1.7 3.8-.5 5.4 1.3 1.8 1.4 1.8 2.1-.1.4-1.1 1.2-2.3 1.7-2.6 1.5-1 6.7 1.1 6.7 2.7 0 1.7 3.6 2.7 8.1 2.2 2.8-.2 3.5-.7 3.7-3 .3-2.2-.2-2.8-3.2-3.8-3.4-1.1-3.6-1.4-3.6-5.3 0-5.8-1-6.9-6.8-7.5l-4.9-.4-.7 4.4zm-99.3 2.7c-.3 1.1-1.8 2.5-3.4 3.1-6.4 2.7-1.4 7.5 5.4 5.3 5.8-2 8.7-4.3 8.7-6.8 0-2.6-1.7-3.5-6.7-3.5-2.6 0-3.6.5-4 1.9z"/><path d="M597.5 282.7c-1.1.3-2.2.8-2.5 1.2-.3.3-2.5 1.9-5 3.6-2.5 1.6-5.5 3.8-6.7 4.8-2 1.8-2.3 1.8-2.9.3-1-2.6-3.4-1.9-4.6 1.5-1 2.8-1.4 3-4.1 2.5-3.8-.8-5.3-2.1-8.4-6.9-2.4-3.8-2.5-3.8-8.1-3.5-5 .3-5.7.6-6 2.5-.3 1.7-1 2.3-2.9 2.3-2.9 0-2.7 2 .3 3.5 1.1.5 3.5 2.7 5.3 4.8 4.1 4.6 6.9 5.4 11.2 3.1 1.8-.9 5.1-1.7 7.2-1.7 3.4 0 5 .5 10.7 3.3.8.4 2.6 2.7 3.8 5.1 2.6 4.9 3.8 5.9 6.7 5.9 1.1 0 2.8.9 3.8 2 1.8 2.1 7.6 2.6 16.7 1.2 3.9-.6 4.5-1.1 5.3-3.9.9-2.8.6-3.5-2.7-6.7-5.1-5.2-4.7-6.3 2.2-7.1 9.5-1 11-1.5 14.2-4.5 2-1.9 3-3.8 3-5.8 0-4.2-2.1-5.6-7.1-4.8-2.9.5-4.8.2-6.3-.8-1.7-1-3.4-1.2-6.7-.6-3.3.6-4.8.5-6-.6-1.5-1.4-6.4-1.7-10.4-.7zm172.6 5.4c-1.9.8-2.1 1.2-1.1 2.4 1.6 1.9 8.4 1.9 10 0 1-1.2.8-1.6-1.5-2.5-3.1-1.2-4.2-1.2-7.4.1zm-65.7 2.4c-.8 2.1 1.4 4.5 4.1 4.5 1.2 0 3 .9 4.1 2.1 3.4 3.8 6.8 5 10.6 3.7 5-1.7 6-2.8 5.4-6-.4-2-.2-2.8.9-2.8.9 0 1.2-.6.9-1.5-.9-2.2-25.2-2.2-26 0zm-58.3 1.4c-1.2 1.2-2.1 2.8-2.1 3.6 0 .9-2.5 4.6-5.5 8.2-4.2 5.1-5.5 7.5-5.5 9.9 0 1.8.5 3.6 1 3.9.6.3 1 1.7 1 3.1 0 2.8 2.4 3.2 5.2.8 1.4-1.3 2.1-1.4 3.2-.5 1.2 1 1.8.8 3.1-1.3 1.7-2.5 2.2-2.6 10.9-2.6h9.3l1-4.7c.7-2.7.8-5.6.3-6.9-1.1-2.8-7.1-9.4-8.6-9.4-.7 0-1.4-.7-1.8-1.5-.3-.8-1.6-1.9-2.8-2.4-5.9-2.2-6.7-2.2-8.7-.2zm40.6 8.6c-2.3 3.6-2.8 5.6-3 12-.3 7.2-.1 7.9 2.7 11.6 1.7 2.1 3.4 3.9 3.8 3.9.4 0 .8 1.1.8 2.5 0 2.1.5 2.5 2.9 2.5 3.1 0 6.2-2.7 4.5-3.8-.6-.4-1.6-4-2.3-7.9-.8-4.3-2.1-8.4-3.4-10-1.4-1.8-1.7-2.8-.9-3.1 2.2-.7 5.8-4.1 4.4-4.2-1 0-1.2-1-.7-4l.7-4h-3.4c-2.8.1-3.7.7-6.1 4.5zm-518.1 6.6c-2.2 1-4.6 1.9-5.3 1.9-2.1 0-1.8 12.6.3 13.8 1.9 1 9-.3 11.1-2 1.7-1.4 1.7-9.3-.1-11-.8-.8-1.5-2.2-1.7-3-.4-1.5-.8-1.4-4.3.3zm-77.3 2c-1.8.6-2.3 1.6-2.3 4.3 0 4.5 1.6 5.4 4.6 2.5 2.7-2.5 3-3.8 1.2-6.1-1-1.2-1.9-1.4-3.5-.7zm693.7 1.6c.1 2.3 7.9 10.9 10.6 11.7 1.3.4 2.6.1 3.3-.8 2.7-3.2-5.5-12.6-11-12.6-2.1 0-2.9.5-2.9 1.7zm-75.6 1.8c-.5 2-1.6 2.8-4.9 3.7-3.9 1.1-4.4 1.5-4.8 4.7-.6 4.3 1.2 7.4 5.6 10.2 7 4.3 9.7 3.5 9.7-2.8 0-2.2.6-3.6 2-4.3 2-1.1 3-7 1.1-7-.4 0-1.2-1.5-1.7-3.3-.7-2.4-1.6-3.3-3.6-3.5-2.2-.3-2.9.2-3.4 2.3zm-658.5 3.4l-2.4 2 2.3 2.1c2.7 2.6 14.2 4.2 14.2 2.1 0-2.4-2.1-5.1-3.9-5.1-1 0-2.4-.7-3.1-1.5-1.7-2-4.3-1.9-7.1.4zm144.1.6c-1.3 1.5-1 2.5 1.7 7.6.2.3-1.2.3-3.1.1-5.3-.6-7.6 1.2-7.6 5.8 0 5.1 2.2 7.3 6.4 6.5 5.2-1.1 6.6-1.6 6.6-2.6 0-.5 2-1.4 4.5-2 2.5-.6 4.5-1.5 4.5-2 0-.4-2-1.1-4.5-1.5-5-.7-5.8-2.5-2-4.2 2.7-1.2 3.2-4 1.5-7.3-1.3-2.3-6.2-2.6-8-.4zm552 1c-.8.9-4.9 4-9.2 6.8-5.4 3.5-8.1 5.9-8.5 7.6-.8 3.3 1 14 4.6 26.6 1.6 5.5 3.1 13.4 3.4 17.5.6 7.9 3 16.1 5.2 18 2.3 1.9 6.4.1 8-3.5.7-1.9 2.5-4.1 3.8-5 4.7-3 6.6-14.1 4.9-27.6-.6-4.6-1.6-12.9-2.3-18.4-.8-7.5-1.8-11.5-4.1-16-3.8-7.6-4.2-7.9-5.8-6zm-527.3 2.2c-.9.9-.8 5.5.1 7 .4.7 1.8 1.4 3.1 1.5 3.4.4 5.1-4.5 2.5-7.3-1.7-1.9-4.5-2.5-5.7-1.2zm-200.9 4.6c-.7 3.6.1 4.7 3.3 4.7 4.4 0 6.9-1.7 6.9-4.5 0-2.3-.4-2.5-4.9-2.5-4.3 0-4.9.3-5.3 2.3zM809 326c0 2.4.6 3.3 2.7 4.1 3.7 1.4 5.7.8 6.1-1.8.4-2.5-3.1-5.3-6.5-5.3-1.9 0-2.3.5-2.3 3zm-165.9 6.2c-1.6 1.7-2.7 3.6-2.5 4.3.5 1.2 7.2 4.5 9.3 4.5.6 0 3.4-1 6.1-2.3 3.3-1.5 5-2.8 5-4.1 0-1.4-.5-1.7-2.4-1.2-1.3.3-2.6.3-2.8-.2-.4-1-6.7-4.2-8.3-4.2-.8 0-2.7 1.4-4.4 3.2zm630.5-1.6c-2.7 2.6-2 4.4 1.8 4.4 2.6 0 3.6-.5 4.1-2 .3-1.1.3-2.4 0-3-.9-1.5-4.2-1.2-5.9.6zM8 333.3c0 2.9 3.6 4.7 9.3 4.7 3.1 0 5.7-.4 5.7-.8 0-.5-1-1.8-2.3-3-1.8-1.7-3.6-2.2-7.5-2.2-3.7 0-5.2.4-5.2 1.3zm671.9 2.3c-1 1.3-1 2.5.2 7.2 1.2 5.1 1.7 5.7 4.2 6l2.7.3v-6.5c0-5.4-.3-6.7-1.9-7.6-2.7-1.4-3.6-1.3-5.2.6zM108 342c0 3 2.9 7 5.1 7 1.8 0 6.9-3.3 6.9-4.5 0-2.5-4.6-5.5-8.3-5.5-3.4 0-3.7.2-3.7 3zm505-1.6c0 .7-.9 3.4-2 5.9-1.7 3.9-2.6 4.7-5.6 5.3-4.1.8-4 2.3.4 4.4 1.7.8 3.2 2 3.2 2.7 0 .6 2.1 1.5 4.8 1.8 2.6.4 8.4 1.8 12.9 3 12.2 3.5 17.3 4.1 17.3 2.2 0-1 1.5-2.1 3.9-2.8 3.9-1.1 4-1.4 4.7-6.5.8-7-.1-10.2-3.2-11.6-2.3-1.1-2.9-.9-4.5 1.1-1.2 1.5-1.9 3.9-1.9 6.6 0 3.5-.4 4.5-2.1 5-1.3.4-2.5.1-3.2-.8-.7-.8-2.5-1.8-4-2.1-3.6-.9-6.8-6-6-9.8.9-4.3-2.9-3.8-5.6.8-1.2 2-2.5 3.4-2.8 3.1-.3-.4 0-1.3.7-2.2 2.1-2.6-.5-7.5-4.1-7.5-1.8 0-2.9.5-2.9 1.4zm-397.7 3.2c-.8 2.2 2.4 4.6 5.7 4.2 2.8-.3 4-3.5 1.8-4.9-2.3-1.5-6.8-1-7.5.7zm1050.4.2c-2.4 2.6-2.1 4.4 1.1 7.5 4.2 4 8.8 2 7.5-3.3-1.3-5.6-5.5-7.6-8.6-4.2zm-1264 2.9c-1.4.4-1.7 1.3-1.5 3.6.2 2.6 1.1 3.6 4.6 5.6 3.6 1.9 4.8 2.2 6.8 1.2 3-1.3 3-3 .2-7.5-2.3-3.5-4.8-4.3-10.1-2.9zm705.3 2.8c-3.2 8.5 1.5 22.5 5.8 17.2 1.8-2.2 2.5-13.8 1-16.7-1.9-3.6-5.5-3.8-6.8-.5zm-592.7 4c-3.7 1.6-5.3 4.2-5.3 8.4 0 2.4.5 3.2 2.4 3.7 3.4.8 4.9-.2 3.6-2.5-.8-1.5-.5-2.1 1.8-3 2.4-1 6.2-5.6 6.2-7.5 0-1.1-5.4-.5-8.7.9zm83.9.7c-2 2.5-2.6 7.7-1.1 10.4 1.5 2.9 6.8 6.4 9.6 6.4 3.2 0 8.8-8 9.4-13.4.4-3.3.5-3.2-10.1-4.2-5.1-.5-6.8-.3-7.8.8zM1257 358c-.6 1.2-1 3.5-.8 5.3.2 2.7.8 3.3 3.1 3.5 3.4.4 5.3-1 6.2-4.5 1.2-5.1-6.1-8.8-8.5-4.3zm-602.6 4.1c-.8 1.3.5 2.9 3.2 3.9 1.6.7 2.3 1.6 2.1 3.1-.1 1.5.8 2.7 3.2 4.1 3.2 1.8 3.4 1.8 5.3.2 2.3-2.2 2-5.3-.7-6.8-1.1-.6-2.4-1.6-3-2.3-1.3-1.6-9.3-3.4-10.1-2.2zm612.8 1.1c-1.8 1.8-1.5 6.8.4 7.5 3.7 1.4 7-4.1 4.4-7.3-1.5-1.7-3.2-1.8-4.8-.2zm-588.8 13.9c.9 5.7 2.5 7.4 5 5.6 2.7-1.9 1.5-5.8-2.5-8.1l-3.2-1.9.7 4.4zM2.3 378.9c-3.1 2.6-3.2 8.1-.2 8.1s8.9-3 8.9-4.5c0-.7.6-1.5 1.3-1.8.9-.3.9-.7-.2-2-1.8-2.2-7-2.1-9.8.2zm712.8 13.7c-2.3 3-2.7 4.9-1 6 1.4.8 6.9-4.5 6.9-6.8 0-2.7-3.5-2.2-5.9.8zm-28 23.8c-.7.8-1.1 2.7-.9 4.3.2 2.2.8 2.8 2.8 2.8 2.2 0 2.5-.4 2.5-4 0-4.3-2.1-5.8-4.4-3.1zm-638 5.7c-6.4 1.1-8.4 2.7-11.9 9.4-2.2 4.1-2.7 6.4-2.7 12.5 0 10 1.9 13.2 10.5 17.7 5.8 3.1 7.1 3.4 12.7 3 8-.6 12-3 16.1-9.7 2.6-4.4 3.2-6.5 3.2-11.1 0-5.9.7-6.9 7.5-10.4 2.1-1.1 3.1-5.2 1.7-7.2-.4-.7-1.9-1.4-3.2-1.5-2-.2-2.5.2-3 2.6-.3 1.7-1.4 3.2-2.6 3.6-1.6.6-2.3.2-3.3-2-2.5-5.9-13.6-8.9-25-6.9zm596 1.8c-1.8 1.8-2.1 3.3-2.1 11.4 0 11.2 1.1 13 7.5 12 4.4-.6 14.5-5.8 14.5-7.4 0-1.9-2.9-6.7-4.5-7.2-.9-.4-1.5-1.9-1.5-3.6 0-2.2-.6-3.1-2.2-3.7-1.3-.4-2.5-1.1-2.8-1.5-.4-.5-2-1.1-3.7-1.5-2.4-.5-3.6-.1-5.2 1.5zm110.5.7c-1.9 1.9-2 2.5-.3 4.8 2.3 3.2 6.5-.4 5.2-4.5-.8-2.3-2.8-2.4-4.9-.3zM146 437.8c-1.9.9-4.3 3.2-5.4 5l-1.9 3.4 2.9 2.4c2.5 2.1 3.6 2.4 8.1 1.9 7.8-.8 8.3-1.1 8.3-5.9 0-5-.7-6.2-4.3-7.5-3.6-1.4-3.6-1.4-7.7.7zm528 4.1c-.8 1.7-.9 2.6-.1 3.4 1.7 1.7 1.4 7.7-.4 7.7-2 0-1.9 1.6.4 3.9 2.7 2.7 11.3 3.7 15.9 1.8 2.1-.8 4.5-1.8 5.5-2.1 2.2-.7 2.2-4.5.1-5.3-.9-.3-2.5-.1-3.5.5-1 .7-2.4 1.2-3.1 1.2-1.6-.1-11.2-8.8-12.6-11.4-.9-1.8-1-1.8-2.2.3zm-71.5 9c-1.4 2.2-2.5 4.4-2.5 4.7 0 .4 1.1 2.2 2.5 4 1.4 1.8 2.5 3.7 2.5 4.2s1.6 1.3 3.6 1.7c2.8.5 4.3.1 7-1.7 3.4-2.3 4.6-6.2 2.5-8.4-.5-.5-1.3-2.5-1.8-4.4-.9-3.4-1.1-3.5-6.1-3.8-5-.3-5.2-.2-7.7 3.7zm-495.3-1.2c-2.5 2.2-2.8 3.6-1.9 8.5.8 3.7.9 3.8 5.1 3.8 5.3 0 7.1-1.8 7.1-7.2 0-6.2-5.7-9-10.3-5.1zm596.3 9.6c-1.7 1.3-1.7 1.5.3 3.5 1.6 1.6 3.4 2.2 6.7 2.2 4.1 0 4.5-.2 4.5-2.5 0-1.9-.7-2.6-3.7-3.4-4.9-1.4-5.6-1.4-7.8.2zM671 471c0 5 .1 5.2 2.5 4.6 9.9-2.5 10.3-7 .7-9.1l-3.2-.7v5.2zm25.8-3.2c-3 1.8-3.5 3.4-1.5 5 1.9 1.6 7.6 2.4 11.3 1.8 3.7-.7 4.6-3.1 1.5-4.1-1-.3-2.6-1.4-3.6-2.5-2.1-2.4-4-2.4-7.7-.2zM737 469c-1.1 1.1-1.7 2.6-1.4 3.4 1.3 3.4 8.4 3 8.4-.4 0-5.1-3.4-6.6-7-3zm-632 6.1c-6.6 1.4-12 10.3-12 19.9 0 5.8 4.3 17.4 8 21.3 2.7 2.9 3.5 3.2 10.3 3.5 8.8.5 11-.4 18.5-7.7 4.8-4.8 6.5-8.5 4.2-9.3-.5-.2-1.6-1.9-2.4-4-1.4-3.2-1.4-3.7-.1-4.2 2.1-.8 1.9-4-.4-6-1.1-1-2.1-3-2.3-4.4-.2-1.7-1-2.8-2.3-3.1-1.1-.2-3-1.4-4.2-2.7-1.2-1.3-2.8-2.4-3.5-2.5-.7 0-3.3-.4-5.8-.8s-6.1-.4-8 0zm39.9 1.8c-1.4.5-3.5 1.3-4.7 2-2.6 1.4-5.8 7.1-4.5 8 .6.3 1.5 2.1 2.1 4 2 5.9 3.8 7.1 10.3 7.1 3.2 0 6.1-.5 6.4-1 .4-.6.9-4.3 1.2-8.3.5-7.2.5-7.2-2.6-9.2-1.7-1.1-3.1-2.3-3.1-2.8 0-.9-1.6-.8-5.1.2zm561.9 9.7c3.4 3.1 6.2 6.3 6.2 7.1 0 1 .9 1.3 3.3 1.1 3.1-.3 3.2-.5 3.5-4.9l.3-4.6-4.8-1.8c-2.6-.9-7-1.9-9.8-2.2l-5-.4 6.3 5.7zm322.9-4.9c-1.2 1.2-.7 5 .8 6.3 1.6 1.3 3 .7 4.5-2 1.5-2.9-3-6.6-5.3-4.3zm-835.1 3.8c-1.9 2-2 2.6-.3 4.9.8 1.1 2.3 1.7 3.8 1.4 2-.2 2.4-.8 2.4-3.8 0-2.8-.4-3.6-2.1-3.8-1.2-.2-2.9.4-3.8 1.3zm663 2.1c-1 .9-1.6 3.3-1.6 6 0 3.7.3 4.4 1.9 4.4 6.4 0 9.8-4.8 6.7-9.5-1.9-2.9-4.7-3.2-7-.9zm-793.6 2c-1.4 3.7-1.2 5.2 1 7.4 2.5 2.5 6.2 2.6 8.5 0 2.6-2.9 1.3-6.7-3.1-8.5-4.8-2-5.3-1.9-6.4 1.1zm102.2-1.3c-1.6 1.9-2.3 6-1.4 7.5.5.8 2.2 1.2 3.8 1 2.5-.3 2.9-.8 3.2-3.8.3-2.4-.2-3.8-1.4-4.7-2.2-1.6-2.9-1.6-4.2 0zm797.8 2.2c-1.8 2.2.1 3.9 3.5 3.1 1.8-.5 2.5-1.2 2.3-2.4-.4-2.3-4.1-2.7-5.8-.7zm-225.4 6.3c-.3.5-2.4 1.2-4.6 1.5-6.9.9-7.3 1.7-6.7 13.2.8 13.2 2.2 24.3 5.1 38.5 1.4 7 2.1 13.7 1.8 17.1-.4 5.5-.3 5.6 3.6 8.7 3 2.4 5 3.2 8 3.2 5.5 0 7.2-.8 7.2-3.6 0-3.5 1.9-7.1 4.5-8.2 4.4-2 5.8-12.9 3-23.1-.8-3-1.9-12.7-2.5-21.5-.6-8.9-1.5-17.5-2.1-19.2-1-3.4-3.6-4.9-9.6-5.9-2.1-.4-4.5-.9-5.5-1.1-.9-.3-1.9-.1-2.2.4zm208.1 13.9c-1.2 1.2-.7 5 .8 6.3 3.5 2.9 7.4-2 4.5-5.6-1.3-1.5-4.2-1.9-5.3-.7zm-231 4c-.4.3-.7 1.7-.7 3 0 1.9.5 2.3 2.9 2.3 3.7 0 5.9-2.4 4.1-4.5-1.3-1.5-5.1-2-6.3-.8zm530.6 3c-.8.3-1.3 2.5-1.3 6.1 0 3.3-.9 7.9-2 10.9-3.7 9.8-.1 11 8 2.8 5.4-5.5 5.5-5.7 5.5-11.4 0-3.4-.6-6.5-1.4-7.4-1.3-1.6-6.1-2.2-8.8-1zm-1096 7.5c-2.6 1.8-3.3 3-3.3 5.6 0 5.1 1.6 7.2 5.3 7.2 4.6 0 6.5-1.8 6.9-6.5.3-4-2.2-8.5-4.6-8.5-.6 0-2.6 1-4.3 2.2zm566.4.6c-1.6 1.8-1.6 2 .4 4.5 1.4 1.8 3 2.7 5 2.7 2.5 0 2.9-.4 2.9-2.8 0-3.6-1-4.9-4.1-5.7-1.8-.4-3-.1-4.2 1.3zm-33.8 9.8c-.6.8-1.7 1.4-2.3 1.4-2.7 0-7.1 6.1-8.1 11.4-1.4 6.7-1 7.8 4 11.5 3.1 2.4 5 3.1 8.7 3.1 4.5 0 4.8-.2 9.7-6.1 4.6-5.4 5.1-6.6 5.1-10.8 0-2.6-.6-5.5-1.3-6.5-.7-1-4.3-2.6-7.9-3.6-5.8-1.6-6.9-1.6-7.9-.4zm30.8 2.1c-.4.3-.7 1.9-.7 3.5 0 2.8 0 2.8 6.4 2.8 3.6 0 6.7-.4 7-.9 1.6-2.5-10.5-7.6-12.7-5.4zM133.3 545c-3.5 2.1-4.1 3.8-2.1 5.8 2.9 2.9 6.7.5 7.1-4.4.3-3.5-1-3.9-5-1.4zm944.2 9c-.5 1.6 0 2.9 1.6 4.6 2.9 3.1 6.1 2.8 7.3-.9 1.2-3.4.2-4.6-4.6-5.4-3.1-.4-3.7-.2-4.3 1.7zm-860.9 8.2c-2.3 3.3-2 3.8 2.4 3.8 3.2 0 4-.4 4-1.8 0-2.1-1.8-4.2-3.6-4.2-.7 0-2 1-2.8 2.2zm597.1-1.6c-2.7 2.7 1.2 6.2 5.4 4.9 3.3-1.1 2.1-4.9-1.6-5.3-1.7-.2-3.4 0-3.8.4zM112 564c-1.6 2.9-.4 4 4.1 4 3.1 0 3.9-.4 3.9-1.8 0-4.2-6.1-5.8-8-2.2zm29 1.6c-.8 1.9-.7 3 .1 4.1 2.8 3.2 8.5-.9 6.3-4.5-1.8-2.9-5.2-2.7-6.4.4zm21.4 11.4c-2.1 2.1-10.6 2.9-15.2 1.3-6.1-2-12.2-.3-12.2 3.5 0 2.3 3.1 4.1 7.3 4.2 3.1 0 4-.4 4.4-2 .7-2.6 1.7-2.5 3.6.4 1 1.5 2.9 2.5 5.6 3 2.2.3 4.6 1.3 5.5 2.1.9.9 3.4 1.5 6.5 1.5 4.8 0 5.1-.2 5.1-2.6 0-1.9-.8-2.8-3.5-4-3.3-1.3-4.8-3.4-2.4-3.4.6 0 .9-1 .7-2.3-.3-2.4-3.6-3.5-5.4-1.7zm1003.6 1.9c-.7 1.3-.7 2.8 0 4.6.8 2.1 1.6 2.6 3.7 2.3 3-.3 3.9-2.3 2.9-6.4-.8-3-5-3.3-6.6-.5zm-1055 3.5c0 4.4 1.8 7.4 5.5 9.1 2.9 1.4 3.8 1.5 5.1.5 2.5-2.2 1.3-5.3-2.8-7.3-2.1-.9-3.8-2.4-3.8-3.2 0-.8-.9-1.5-2-1.5-1.5 0-2 .7-2 2.4zm638.6-.9c-1.4 3.8-.5 5.5 4.9 9 6.6 4.2 7.7 4.3 9.5 1 1.1-2 1-2.8-.3-4.8-1.6-2.4-6.1-5-10.8-6.2-1.9-.5-2.8-.2-3.3 1zm-694.5 4.2c-.6 2.1-.7 4.1-.2 4.6 1.5 1.5 6.3.3 7.8-2 1.4-2.1 1.3-2.3-1.9-4.3-1.8-1.1-3.6-2-4-2-.4 0-1.2 1.7-1.7 3.7zm130.5 4.9c-1.2 3-.7 13.4.7 13.5 4.1.3 12.3-.4 14.4-1.2 1.9-.7 2.2-1.2 1.4-2.8-.8-1.3-2.7-2-7.2-2.5l-6.1-.7.4-4c.3-3.1 0-3.9-1.3-3.9-.9 0-2 .7-2.3 1.6z"/><path d="M171.2 597.6c-2 2.4-2.7 2.6-6.5 1.9-9.8-1.6-14.8-2.1-15.3-1.4-.6 1 2.7 7.9 3.8 7.9.4 0 .8 1.7.8 3.9 0 4.2 1 5.4 5.5 6.6l3 .8-3.1.8c-5.1 1.4-11 8.1-13.3 15.1-2.8 8.2-2.7 11.9.6 20.4l2.7 7.2 7.4 3.8c7.2 3.6 7.6 3.7 12.1 2.5 5.7-1.5 10-4 11.5-6.5.6-1.1 1.9-2.9 2.9-4 .9-1.1 2-3.7 2.4-5.8.3-2.1 1-4.1 1.4-4.4.5-.3.9-1.3.9-2.3 0-1 .7-2.4 1.5-3.1.8-.7 1.5-2.2 1.5-3.4 0-1.6 1.1-2.7 4-4 2.2-1 4-2.1 4-2.5 0-.5-1.1-2.5-2.5-4.5-3.1-4.5-3.1-5.1-.3-7 3.2-2.2 1.6-3-2.6-1.2-2.7 1.1-3.6 2.1-3.6 3.9 0 1.4-.7 2.7-1.5 3.1-.8.3-1.5 1.2-1.5 2.1 0 1.8-.9 1.9-3.4 0-1.7-1.3-1.7-1.5-.2-3.7 2.1-3 2-4.5-.5-7.6-1.9-2.4-2-3.5-1.4-10.9.6-7.5.5-8.2-1.4-9.2-3.3-1.8-6.5-1.2-8.9 1.5zm1030.4-.3c-1.2.9-1.7 2.3-1.4 4.7.3 3 .7 3.5 3.3 3.8 4.7.6 7.3-4.8 3.9-8.2-1.9-1.9-3.5-2-5.8-.3zm-1098 3.5c.7 3.9 2.5 5.9 6.1 6.9 3.6.8 5.3-.3 5.3-3.7 0-3.2-1.6-4.3-8.8-6l-3.3-.8.7 3.6zm651.4 2.8c-.9 2.2-.8 3.1.5 4.3 2 2 3.8.3 3.3-3.5-.4-3.7-2.5-4.2-3.8-.8zm-633.5 7.6c0 1.8-.4 4.3-.8 5.5-.7 1.9-.5 2.3 1.3 2.3 1.3 0 2.4.8 2.7 2 .3 1.3 1.7 2.2 3.9 2.6 5.1.9 6.4 0 6.4-4.4 0-4.1-1.4-6.2-4.1-6.2-.9 0-2.4-1.1-3.3-2.5-.9-1.4-2.6-2.5-3.9-2.5-1.8 0-2.2.6-2.2 3.2zM0 612.8c0 4 .2 4.2 4 5.2 2.2.6 7.5 1 11.8.8 7.4-.3 7.7-.4 8-2.8.4-3.9-3.9-5.9-14.7-6.7l-9.1-.6v4.1zm58 4c0 7.1 5.7 9.2 10.2 3.8.9-1.1 1.7-3.3 1.8-4.9 0-2.6-.1-2.7-6-2.7h-6v3.8zm-19.8 1.4c-2 2-1.5 6.6.9 7.9 4.1 2.1 9.7-4.2 6.9-7.6-1.5-1.8-6.1-2-7.8-.3zM822 632c0 1.7 4.7 6 6.5 6 2.1 0 1.9-3.3-.3-5.3-2.1-1.9-6.2-2.3-6.2-.7zm-498.4 7.6c-.3.9-.6 2.1-.6 2.8 0 1.9 6.6 4.6 11.4 4.6 2.4 0 5.8.5 7.6 1.2 3.1 1 3.5.9 6.1-2.3 1.6-1.9 2.7-3.9 2.5-4.4-.1-.6-2.2-1.4-4.5-1.9-3.4-.7-4.9-.6-7 .7-3.1 1.8-10.4 1.3-12.2-.9-1.5-1.8-2.5-1.8-3.3.2zm-250.8 2.7c-3.1 1.2-3.5 3.6-1.8 9.7.8 2.8 1.8 3.8 5.4 5.3 3.7 1.5 4.8 1.6 6.5.5 1.8-1.1 2.1-2.3 2.1-8 0-5.6-.3-6.9-1.9-7.8-2.4-1.2-6.7-1.1-10.3.3zm478.9.8c-4.7 3.6-2.5 8.9 3.7 8.9 5.5 0 8.5-5 4.9-8.2-3.2-2.8-5.8-3-8.6-.7zm-35.4-.4c-1.4.3-2.3 1.2-2.3 2.3 0 1.1-.9 2.4-2 3-1.4.7-2 2.1-2 4.3.1 8.7 5.8 11.2 11.6 4.9 2.8-3.1 3.4-4.5 3.4-8.4 0-2.6-.3-4.9-.7-5.1-1.6-.8-5.9-1.4-8-1zm-113.9 5.2c-1.8 1.1-3.5 2.4-3.9 3-.4.7-2.1.9-4.6.5-3.5-.6-3.9-.4-3.9 1.5 0 1.1.4 2.1 1 2.1.5 0 1.8 1 2.9 2.2 1.4 1.5 3.9 2.4 8.2 3 8.2 1.1 9.1.3 8.7-7.6-.3-5.7-.5-6.1-2.8-6.4-1.4-.1-3.9.6-5.6 1.7zm185.2 3.6c-1 1.5-2 4.1-2.3 5.9-.5 3.3-.5 3.3 4.5 3.9 2.7.3 6.5 1.2 8.4 2l3.5 1.5-.4 7.9c-.4 7.8-.3 7.9 3.1 11.2 3.2 3.1 3.6 3.2 6.3 1.9 3.3-1.6 4.4-6.6 1.8-9.1-1.2-1.3-1.3-2-.3-4.2s.8-2.9-1.5-5.3c-2.2-2.3-2.5-3.3-2-7.2.4-3.2.1-4.9-.8-5.7-1.8-1.4-9.9-4.1-14.7-4.9-3.4-.5-4-.3-5.6 2.1zm413.5-.4c-4 4.3-4.6 13.9-.8 13.9.7 0 3.1-1.8 5.5-4 4.6-4.3 5.4-7.6 2.4-10.3-2.5-2.3-4.7-2.1-7.1.4zm-428.3 3.1c-.8.7-1.8 2-2.1 2.9-.7 2 2.8 7.9 4.5 7.9 4.5-.1 6.5-7.2 3-10.3-2.2-2-3.3-2.1-5.4-.5zm-233 3.9c-1 .5-1.8 1.5-1.8 2.2 0 .7-1 3.1-2.2 5.3-2 3.8-2.1 4.6-.9 8.3 1.4 4.8 5.4 8 7.9 6.5 1.9-1.2 4.9-10 5.7-17 .7-4.8.5-5.2-1.7-5.7-3.2-.9-5-.8-7 .4zm-225.4 1.4c-10.8 1.9-14.3 3.4-19.1 7.8l-4.4 4 .7 5.6c1.8 15.5 12.8 28 24.5 28.1 1.3 0 3.1.5 3.9 1 1.9 1.2 9.2-5.7 12.2-11.4 2.6-5 3.5-14.7 1.8-18.4-3.2-7-4.6-9.6-5.5-10.6-.6-.6-2.1-2.6-3.4-4.4-1.2-1.7-2.5-3.2-2.9-3.1-.4 0-3.9.7-7.8 1.4zm239.6 2.4c0 .6.5 1.3 1 1.6.6.3 1 2.6 1 5 0 5.1 1.6 6.5 7.8 6.5 2.6 0 4.5-.6 5.7-2 1-1.1 2.6-2 3.5-2 2.4 0 4-2.1 4-5.3 0-2.3-.3-2.8-1.7-2.3-.9.4-3.5.9-5.8 1.2-3.2.5-4.4.2-5.9-1.5-2-2.2-9.6-3.1-9.6-1.2zm333.2 1.3c-1.4 1.4-1.6 4.4-.4 5.2.5.3 1.8.2 3-.1 2.9-.7 3.2-6.3.4-6.3-1 0-2.3.5-3 1.2zm-547.9 7c-1.3 1.4-2.3 3.4-2.3 4.7 0 1.9.4 2.2 3.2 1.9 2.6-.2 3.3.1 3.6 1.7.5 2.5 5.1 7.5 7 7.5 2.6 0 4-3 2.9-6.1-1.2-3-4.4-4.9-8.1-4.9-1.9 0-2.6-.7-3.3-3.6l-.8-3.6-2.2 2.4zm383.7.8c0 .5-.7 1-1.5 1-1.8 0-1.8 0-.2 3.7 2 4.9 6.1 10.3 7.8 10.3 1.6 0 5.9-7 5.9-9.7 0-1.1-.7-1.4-2.4-.9-1.4.3-3.6.2-5.1-.4-2.2-.8-2.4-1.3-1.5-3 .9-1.7.8-2-1-2-1.1 0-2 .4-2 1zm-343.6 3.5c-2.6 6.3-2.1 7.5 3.4 7.5 5.6 0 8.2-2 8.2-6.3 0-3.1-2.4-4.7-7-4.7-2.6 0-3.3.6-4.6 3.5zm204.1-1.6c-.3 1 0 3 .6 4.5 1 2.2 1.9 2.6 5.2 2.6 2.3 0 4.8-.7 5.8-1.6 1.8-1.6 1.8-1.7-.4-3.3-2.7-2.1-7.3-4.1-9.2-4.1-.7 0-1.6.8-2 1.9zM214 678c0 .5-.5 1-1.1 1-1.8 0-7.9 6.3-7.9 8.1 0 .9-.9 1.9-2 2.2-1.2.3-2 1.4-2 2.7 0 1.8.4 2 2.3 1.4 5.5-1.8 6.3-1.3 9.1 5.8 1.2 3.1 2 3.8 4.2 3.8 2.7 0 2.7 0 2.1-5.9-.3-3.3-1.2-7.4-2-9-1.1-2.1-1.3-4.1-.7-6.5.4-1.9.5-3.7.2-4-.9-.9-2.2-.7-2.2.4zm135.8 2.8c-4.1 3-4.5 3.9-2.5 6.6 1.3 1.8 1.9 1.8 8.3.6 3.8-.8 7.1-1.5 7.3-1.7.7-.5-4.2-5.3-5.5-5.3-.6 0-1.4-.7-1.8-1.5-.7-2-1.4-1.8-5.8 1.3zm-295.8.1c-2 .5-2.6 1.4-2.8 4.5l-.3 3.9 4.8-.7c2.7-.3 5.3-1.3 6.1-2.3 3.4-4.6-.6-7.4-7.8-5.4zm323 .8c-3.1 1.2-4 2.4-3 4.3 1.3 2.4 6 3.8 14.5 4.2 6 .3 7 .1 7.3-1.5.5-2.5-1.6-4.7-4.3-4.7-1.2 0-2.8-.7-3.5-1.5-1.2-1.5-7.8-2-11-.8zm30.2 2.6c-2.7 2.9-2.8 4.3-.3 5.7 4.3 2.3 7.9-2.7 4.4-6.1-1.9-1.9-1.9-1.9-4.1.4zM194 687c-1.4 3.5-2.6 3.8-3.3 1-.4-1.6-1.4-2-5.2-2-5.1 0-5.1-.1-1.8 8 1.1 2.7 1.6 3.2 2.3 2 .8-1.2 1-1.1 1 .6 0 3.8 4.9 3.8 5 .1 0-.4 1.3-1.3 3-1.8 4.9-1.8 6.2-10.9 1.5-10.9-.7 0-1.8 1.3-2.5 3zm365.6 6.1c-3.7 2.9-3.2 6.6 1.2 8.9 1.8 1 5.4 3.8 8.1 6.3 2.7 2.6 6.7 5.1 9 5.8 2.3.7 4.6 1.8 5.2 2.6 1.3 1.5 11.5 1.8 12.4.3.7-1.1-3-5-4.8-5-.7 0-6.1-4.7-11.9-10.5-11.6-11.5-13.9-12.5-19.2-8.4zm160.2-.5c-2.9 1.5-3.6 4.2-1.6 6.2 1.3 1.3 7.5 1.6 10.2.6 2.3-.9 1.9-5-.6-6.8-2.8-2-4.5-2-8 0zm-114.4.9c-.4.8-.3 2.6 0 4 .9 3.5 5.6 3.6 5.6.1 0-3.1-4.7-6.5-5.6-4.1zm-223.6 1.1c-1.7 1.6-.6 3.2 4.2 5.8 5.6 3 10.6 3.2 12.4.4 1.9-3-1.9-5.5-9.4-6.3-3.6-.4-6.8-.3-7.2.1zm-25.1 4.1c-1.6.3-4.4 1.5-6.3 2.8-1.9 1.3-5.2 2.6-7.4 3-4.7.8-4.7 1.1-2.4 11.4 2.1 9.4 4.3 11.3 12.8 10.8l6.1-.3 1.7-4.5c.9-2.4 1.7-6.7 1.7-9.5.1-3.8.6-5.6 2.1-6.9 1.1-1 2-2.4 2-3.1 0-1.3-5.1-4.5-6.7-4.3-.4.1-2.1.4-3.6.6zm559.9 1.8c-.8 2.3.4 4.5 2.4 4.5 2.5 0 3.3-1.6 2-4-1.3-2.4-3.5-2.6-4.4-.5zM143.3 702c-2.6 1.1-3.1 4.5-.7 5.4 2.6 1 4 .7 6.4-1.2 2.1-1.7 2.1-1.9.5-3.5-1.8-1.9-2.9-2-6.2-.7zm500.3 1.9c-.4.6-1.4 1.1-2.2 1.1-2.7 0-7.3 5.2-8 8.9-.4 2-1.1 3.9-1.6 4.2-1.1.7 1.7 14.9 3.8 19 2.1 4.2 10 8.9 14.8 8.9 10.7 0 21.7-7.6 23.1-15.8 1.2-7-2.4-18.3-7.5-23.3-2.8-2.9-3.6-3.1-12.4-3.6-6.4-.4-9.5-.2-10 .6zm-271.5 2.5c-.9 1.1-.7 2.7 1.2 7.3 1.9 4.8 2.7 5.8 4.8 5.8 3.4 0 4.8-5.5 2.6-10.8-1.3-3.1-2.1-3.7-4.5-3.7-1.6 0-3.5.6-4.1 1.4zm525.9 1.1c-.8.9-2.2 1.2-4.1.8-2.4-.4-3.3-.1-4.6 1.7-1.2 1.7-2.2 2.1-4.3 1.7-1.5-.3-3.2-.1-3.9.6-2.8 2.8.1 10.7 3.9 10.7 1.1 0 2.7-1.1 3.6-2.5.9-1.4 2.5-2.5 3.6-2.5 1 0 2.9-1.1 4.2-2.5 1.9-2 2.9-2.4 5.5-1.9 3.1.6 3.1.6 3.1-3.5 0-3.9-.2-4.1-2.9-4.1-1.6 0-3.4.7-4.1 1.5zm-290 3.8c0 4.7 1.8 7.7 4.6 7.7.9 0 1.4 1.1 1.4 3.4 0 4 2.1 6.6 5.3 6.6 2 0 2.2-.4 1.9-4.6-.2-2.5-1-4.8-1.7-5-.9-.4-1.1-1.8-.8-4.2.6-4.5-1.4-6.7-6.9-7.7l-3.8-.7v4.5zm-477.4-.8c-5.1 1.8-6.3 3-4.6 5 .7.8 1.8 1.5 2.5 1.5s1.5.7 1.9 1.5c.6 1.8 5 2 9.5.4 2.2-.8 3.1-1.7 3.1-3.4 0-2.1-1.4-3.4-3.3-3.1-.5 0-1.3-.7-1.8-1.7-1.2-2-2.1-2.1-7.3-.2zm22.8.9c-1.2 5 5.3 20.7 8.9 21.4 2.7.5 4.4-1.4 6.2-6.9 2-6 1.5-7.8-3.8-12.9-5.1-4.9-10.3-5.6-11.3-1.6zm233.9.6c-1.5 2.3-.3 6.4 2.2 7.4.9.3 3.4.6 5.6.6 3.5 0 3.9-.3 3.9-2.5 0-1.4-.8-2.9-2-3.5-1.1-.6-2-1.7-2-2.5 0-2.3-6.2-1.9-7.7.5zM91 714.7c-3 1.1-5 3.7-5 6.3 0 2.7.1 2.8 8.4 3.5 10.2.8 12.6.2 12.6-3.1 0-1.3-.5-2.4-1.1-2.4-.6 0-2.4-1.1-4.1-2.5-2.8-2.4-7.2-3.1-10.8-1.8zm760.7 10c-.4.3-.7 1.9-.7 3.4 0 3.2 2.8 4.6 6 2.9 1.1-.6 2-.7 2-.3 0 .4.5.2 1.2-.5 2.1-2.1-1-6.2-4.7-6.2-1.7 0-3.5.3-3.8.7zm-732.2 1.7c-2.9.8-4.1 1.8-4.3 3.3-.3 1.8.5 2.4 4.7 3.7 6.9 2 9.1 3.4 9.1 5.6 0 1 .4 2.1.9 2.4 1.7 1.1 4.2-.6 4-2.8-.1-1.1.1-2.8.5-3.7 1.1-2.5-3.1-8.9-5.9-8.9-1.3 0-2.9-.2-3.7-.4-.7-.3-3.1.1-5.3.8zM460 726c-1.8 1.1-.5 5.7 2.1 7 2.8 1.6 4.9.5 4.9-2.3 0-3.5-4.3-6.4-7-4.7zm-65 4.8c0 3.8 4.4 6.2 6.8 3.8 2.5-2.5.1-6.6-3.8-6.6-2.6 0-3 .3-3 2.8zm185.6-.3c-.3.9-2.2 2.3-4.2 3.1-3.6 1.5-3.7 1.5-5.9-1.2-1.7-2.2-2.7-2.6-4.8-2-2.6.6-2.6.7-1.4 3.9 1.1 2.5 2.1 3.3 4.7 3.7 3.3.5 3.5.8 5.7 8 1.3 4.1 2.3 8.7 2.3 10.2 0 3.9 3.2 6.8 7.6 6.8 1.9 0 4.4.5 5.5 1.1 2.5 1.3 4.6-.2 5.1-3.4.2-1.4 1.1-2.3 2.5-2.5 1.7-.3 3 .9 5.9 5.3 3.9 5.9 7.6 8.5 11.7 8.5 2.8 0 3.7-1.6 3.7-6.6 0-3.2-2.8-7.4-4.9-7.4-.5 0-1.2-.9-1.6-2-.3-1-2-2.6-3.7-3.5-2.8-1.3-3.3-1.3-4.8 0-2.1 1.9-3 1.9-3 .1 0-2.2-4.5-6.6-6.7-6.6-4 0-5.2-2.1-5.5-9.5l-.3-7-3.6-.3c-2.6-.2-3.8.1-4.3 1.3zm-249.8 3.2c-2.2.6-2.2.4.1 5.6 1.1 2.3 2.4 5.8 2.9 7.7.7 2.8 1.3 3.5 3.3 3.5 2.5 0 4.2-2.5 5.4-8.1.5-2.8.3-3.2-1.8-3.8-1.5-.3-2.7-1.6-3.1-3.1-.6-2.5-2.4-3-6.8-1.8zm505.4.5c-1.3 1.3-1.6 5.4-.4 6.1.4.3 2.2.8 4 1.2 4.2.9 5.2-1.3 2.2-5.5-2.3-3.2-3.9-3.7-5.8-1.8zm-676.6 2.7c-1.6 1.7-1.6 2.3-.4 4.7 1.6 3.3 4 4.9 6.2 4.1 2.5-1 1.9-5-1.2-8-2.8-2.7-2.9-2.7-4.6-.8zm-80.8 1.2c-1 .5-1.8 1.6-1.8 2.4 0 .7-1.2 2.7-2.6 4.4-1.4 1.7-2.4 3.9-2.2 4.8.3 1.6 1.3 1.8 7.8 1.5 8.4-.4 13.6-2.8 14.6-6.7.8-3.1-.1-4.4-4.2-6.1-3.9-1.6-9.2-1.8-11.6-.3zm316.3 1c-5.4 1-6.4 1.9-5.6 5 .5 2.1 1.2 2.4 6.2 2.6 6.3.2 9.3-.9 9.3-3.5-.1-4.1-3.2-5.4-9.9-4.1zm-13.1.6c0 .7-1 1.3-2.2 1.5-3.4.5-3.8 6.8-.7 9.7 2.7 2.5 4.2 2.6 7.4.5 3.5-2.3 3.1-5.4-1-9.4-1.9-1.9-3.5-2.9-3.5-2.3zm-127.2 7.4c-2.6 1.5-2.2 5.3.7 6.9 2 1.1 2.7 1.1 4 0 2.1-1.8 1.9-5.7-.4-7-2.3-1.2-2.2-1.2-4.3.1zm538.2 1.2c-3.1 1.6-3.8 4.6-1.4 6.4 4.3 3.1 8.7-.5 6.5-5.3-1.2-2.7-1.7-2.8-5.1-1.1zm-172.7.4c-4.1.8-4.7 2.9-2 6.5 1.3 1.8 3.1 5.1 3.8 7.3.7 2.2 1.6 4.4 2 4.9.4.4 3.6.8 7.2.8 10.6 0 13.1-2.9 11.1-13-.5-2.5-1.5-3.3-6.1-5.1-5.1-1.9-10.7-2.4-16-1.4zm-457.6 5c-1.3 1.2-.7 7.9.9 10.1 1.9 2.8 4 2.8 5.4.1 1.4-2.6.6-6.3-2-8.9-2.1-2.1-3.2-2.4-4.3-1.3zm-37.8 3.3c-.9.5-2.4 2.1-3.3 3.5-1.4 2.1-1.5 2.9-.5 4.1 1.4 1.7 5.6 1.8 8.6.1 2.8-1.6 6.6-6.4 5.5-7.1-1.9-1.1-8.8-1.6-10.3-.6zm348.6 3.9l-5 2.6-.2 5.5c-.3 5.4-.2 5.6 3.4 7.8 2.8 1.8 4.6 2.3 7.3 1.8 4.3-.7 5.6-2.3 7.1-9.2 1.1-4.8 1-5.6-.6-7.4-1-1.1-2.6-2-3.5-2-.9 0-2-.4-2.5-.9-.6-.5-3.1.3-6 1.8zm270.9-1.5c-4.8 2.1-4.7 3.8.3 10.5 4.7 6.4 5.3 6.7 12.6 5.5 3.7-.7 3.7-.7 3.7-5.5 0-4.5-.3-5-4.6-8.4-5.1-3.8-7.2-4.2-12-2.1zM332 763.7c0 5.8 2.2 15.2 3.8 15.8 2.2.8 8.1-4.6 9.2-8.5 1.5-5.2 1.3-9-.5-9-.8 0-1.5-.5-1.5-1 0-1.5-2.6-1.2-4 .5-1.2 1.4-1.5 1.4-3 0-2.7-2.5-4-1.8-4 2.2zm239.7 7c-.4.3-.7 1.9-.7 3.4 0 2.4.6 3 3.7 3.8 5 1.4 6.2.1 4-4.4-1.2-2.5-2.3-3.5-4-3.5-1.3 0-2.7.3-3 .7zm46.4 6.8c-3.9 3.3-4.3 9-.9 13.5 1.9 2.6 2.8 3 6.9 3 7.6 0 9.6-1.4 11-7.7 1.1-4.9 1.1-5.6-.8-8.1-1.7-2.3-2.9-2.7-7.5-3-4.8-.3-6 .1-8.7 2.3zm102.1-1.3c-.7.7-1.2 2.7-1.2 4.5 0 3.1.2 3.3 3.3 3.3 3.8 0 5.7-1.5 5.7-4.5 0-2.7-1.8-4.5-4.5-4.5-1.2 0-2.6.5-3.3 1.2zm-374.4 2.9c-3.8 2.2-.6 5.9 3.3 3.9 2.2-1.2 2.4-2.1.7-3.8-1.4-1.4-1.8-1.4-4-.1zm133.8 4.5c-2.9 2.9-1.5 6.4 2.5 6.4 2.2 0 3-.6 3.5-2.5 1.1-4.5-2.9-7.1-6-3.9zm41.2.7c-.9.6-2.3 2.4-3.2 3.8-1.5 2.3-1.5 2.8-.1 3.9 1.2 1 2.1.9 5-.4 3.9-1.9 4.5-4.4 1.7-6.9-1.5-1.4-2.1-1.4-3.4-.4zm-271 11.5c-.9.2-2 1.2-2.3 2.2-.3 1-1.5 2.2-2.6 2.5-2.5.8-2.4 1.7.5 5.2 1.3 1.6 2.6 4.2 2.8 5.8.4 3.4 2.8 4.7 2.8 1.5 0-1.3 1.1-2.7 3-3.8 1.6-.9 3-2.2 2.9-2.7 0-.6-1.2-3.3-2.7-6-1.9-3.6-3.2-5-4.4-4.7zm179.2 2.3c0 2.1 1.2 3.7 5.2 6.9 2.8 2.2 5.9 3.9 6.7 3.8.9-.2 2.1-1.9 2.7-3.8.6-1.9 1.6-3.6 2.3-3.8.6-.2 1.1-1.6 1.1-3v-2.7l-9-.1-9-.1v2.8zm185.6 3.1c-3.3 4.6-1.2 10.1 3.8 10.4 1.1 0 3.1.4 4.3.8 2.6.8 4.3-1.6 4.3-6.3 0-6.4-8.9-9.9-12.4-4.9zM505.5 804c-1.2 1.9 2.4 6.2 4.8 5.8 2.5-.3 3.4-3.2 1.7-5.3-1.4-1.7-5.6-2-6.5-.5zm-85.9 2.6c-1.7 4.5.3 7.7 3.3 5 1-.9 2.8-1.6 4-1.6 1.7 0 2.2-.4 1.7-1.6-.3-.9-.6-2-.6-2.5 0-1.6-7.7-1-8.4.7zm148.8 7.9c-.7 4.2 0 5.4 2.4 3.9 2.2-1.4 2.8-5.4 1-6.5-2.2-1.4-2.7-1-3.4 2.6zm113.9-1.8c-.3.7-.2 2.4.1 3.8.5 2 1.3 2.5 3.7 2.5 2.9 0 3-.2 2.7-3.7-.3-3.2-.6-3.6-3.2-3.8-1.5 0-3 .5-3.3 1.2zm-568.5 7c-2.4 2.8-2.7 4.7-1.3 8.1 1.7 3.8 5.7 5.2 9.4 3.1 3.2-1.8 4.2-8.7 1.6-11.3-2.2-2.1-7.8-2.1-9.7.1zm163 7.4c-4.3 2.2-4.8 4.4-2.1 9 1.5 2.5 2.3 2.9 6.3 2.9 5.1 0 9-2.2 9-5 0-3.2-2.1-6.7-4.7-7.9-3.2-1.5-4.1-1.4-8.5 1zm294.2 2c-1.6 2.8.3 4.9 4.4 4.9 3.1 0 3.2-.1 2.8-3.5-.4-3.1-.8-3.5-3.3-3.5-1.8 0-3.2.7-3.9 2.1zm-157.7 1.5c-1.6 2.5-1.6 2.7.1 4 2.1 1.5 5.6.3 5.6-2.1 0-4.8-3-5.9-5.7-1.9zm70.7 4.9c0 2 .5 2.5 2.4 2.5 3 0 4.2-1.6 2.6-3.5-2.1-2.5-5-1.9-5 1zm-286.2 12.1c-1.2 1.1.5 4.4 2.2 4.4 1.9 0 3.4-2.5 2.4-4.1-.6-1-3.7-1.2-4.6-.3zm175.5 15.7c-1.8 1.2-3.7 3.5-4.3 5.2-1 2.7-.8 3.2 2 5.7 2.3 2.2 4 2.8 7.4 2.8 4.2 0 5-.4 8.4-4.4 1.9-2.4-1.4-8.4-5.6-10.2-4.2-1.7-3.9-1.7-7.9.9zm-162.6-.7c-1.3 1.3-.7 5.2.9 5.8 2.2.9 4.6-1.3 4.2-3.8-.3-2.1-3.7-3.4-5.1-2zm646.5 5.1c.3 2.9 3.2 4.3 5 2.5 1.5-1.5-.9-5.2-3.3-5.2-1.6 0-2 .5-1.7 2.7zm-650.4 4.4c-1 .5-1.8 1.8-1.8 2.8 0 2.4 3.4 5.4 5.7 4.9 2-.4 3.9-4.8 3-7.2-.7-1.8-4.3-2.1-6.9-.5zM258 894c0 9.4.1 10 2 10 2.3 0 3.5-2.4 4.5-9.4.9-6.1-.8-10.6-4.1-10.6-2.4 0-2.4.1-2.4 10zm-81.8-7.8c-2.1 2.1-1.4 5.7 1.3 7 3.4 1.5 5.7-.5 5.3-4.6-.2-2.5-.8-3.2-2.8-3.4-1.4-.2-3.1.3-3.8 1zM259 919c-1.8 1.6-2.1 2.5-1.6 5.5.7 3.5.8 3.6 4.9 3.3l4.2-.3.3-5.3c.3-5.1.3-5.2-2.6-5.2-1.6 0-3.9.9-5.2 2zm-30.3.7c-1.4 1.4-.6 5.3 1.3 6.3 2.6 1.4 4 .5 4-2.4 0-3.4-3.4-5.9-5.3-3.9z"/></svg>